<?xml version="1.0" encoding="UTF-8" standalone="no"?>
<!-- Created with Inkscape (http://www.inkscape.org/) -->

<svg
   xmlns:dc="http://purl.org/dc/elements/1.1/"
   xmlns:cc="http://creativecommons.org/ns#"
   xmlns:rdf="http://www.w3.org/1999/02/22-rdf-syntax-ns#"
   xmlns:svg="http://www.w3.org/2000/svg"
   xmlns="http://www.w3.org/2000/svg"
   xmlns:sodipodi="http://sodipodi.sourceforge.net/DTD/sodipodi-0.dtd"
   xmlns:inkscape="http://www.inkscape.org/namespaces/inkscape"
   width="66.169556"
   height="66.893181"
   id="svg5546"
   version="1.1"
   inkscape:version="0.48.3.1 r9886"
   sodipodi:docname="add.svg">
  <defs
     id="defs5548" />
  <sodipodi:namedview
     id="base"
     pagecolor="#ffffff"
     bordercolor="#666666"
     borderopacity="1.0"
     inkscape:pageopacity="0.0"
     inkscape:pageshadow="2"
     inkscape:zoom="1.979899"
     inkscape:cx="90.774797"
     inkscape:cy="-16.495519"
     inkscape:document-units="px"
     inkscape:current-layer="layer1"
     showgrid="false"
     fit-margin-top="0"
     fit-margin-left="0"
     fit-margin-right="0"
     fit-margin-bottom="0"
     inkscape:window-width="682"
     inkscape:window-height="713"
     inkscape:window-x="683"
     inkscape:window-y="27"
     inkscape:window-maximized="0"
     inkscape:object-paths="true"
     inkscape:snap-intersection-paths="true"
     inkscape:object-nodes="true"
     inkscape:snap-smooth-nodes="true"
     inkscape:snap-midpoints="true"
     inkscape:snap-object-midpoints="true"
     inkscape:snap-center="true"
     inkscape:snap-page="true">
    <inkscape:grid
       type="xygrid"
       id="grid3774"
       empspacing="5"
       visible="true"
       enabled="true"
       snapvisiblegridlinesonly="true"
       originx="-44.262036px"
       originy="675.9273px" />
  </sodipodi:namedview>
  <metadata
     id="metadata5551">
    <rdf:RDF>
      <cc:Work
         rdf:about="">
        <dc:format>image/svg+xml</dc:format>
        <dc:type
           rdf:resource="http://purl.org/dc/dcmitype/StillImage" />
        <dc:title />
      </cc:Work>
    </rdf:RDF>
  </metadata>
  <g
     inkscape:label="Ebene 1"
     inkscape:groupmode="layer"
     id="layer1"
     transform="translate(-69.772104,-818.91559)">
    <path
       style="fill:#616574;fill-opacity:1;stroke:#000000;stroke-width:1.5;stroke-linecap:round;stroke-miterlimit:4;stroke-opacity:1;stroke-dashoffset:0"
       d="m 133.58937,952.36219 c 0,16.97294 -13.75929,30.73223 -30.73223,30.73223 -16.972943,0 -30.732232,-13.75929 -30.732232,-30.73223 0,-16.97295 13.759289,-30.73224 30.732232,-30.73224 16.97294,0 30.73223,13.75929 30.73223,30.73224 z"
       id="path3800"
       inkscape:connector-curvature="0" />
    <path
       style="fill:#ffffff;fill-opacity:1;stroke:#000000;stroke-width:1.49999988"
       d="m 99.917853,936.71372 0,12.71903 -12.719016,0 0,5.86474 12.719016,0 0,12.69488 5.864747,0 0,-12.69488 12.71901,0 0,-5.86474 -12.71901,0 0,-12.71903 -5.864747,0 z"
       id="rect3000"
       inkscape:connector-curvature="0" />
    <path
       id="path3802"
       d="m 102.27948,992.09327 c -1.78422,0 -3.226895,1.44269 -3.226895,3.22689 l 0,13.24614 -13.226241,0 c -1.78421,0 -3.226884,1.4427 -3.226884,3.2269 l 0,1.1354 c 0,1.7842 1.442674,3.2269 3.226884,3.2269 l 13.226241,0 0,13.2461 c 0,1.7843 1.442675,3.2269 3.226895,3.2269 l 1.15529,0 c 1.78421,0 3.22689,-1.4426 3.22689,-3.2269 l 0,-13.2461 13.22623,0 c 1.78421,0 3.22689,-1.4427 3.22689,-3.2269 l 0,-1.1354 c 0,-1.7842 -1.44268,-3.2269 -3.22689,-3.2269 l -13.22623,0 0,-13.24614 c 0,-1.7842 -1.44268,-3.22689 -3.22689,-3.22689 l -1.15529,0 z"
       style="fill:#ffffff;fill-opacity:1;stroke:#000000;stroke-width:1.49999988"
       inkscape:connector-curvature="0" />
    <path
       id="path2996"
       d="m 133.58911,852.36219 c 0,16.97294 -13.75929,30.73223 -30.73223,30.73223 -16.972938,0 -30.732228,-13.75929 -30.732228,-30.73223 0,-16.97295 13.75929,-30.73224 30.732228,-30.73224 16.97294,0 30.73223,13.75929 30.73223,30.73224 z"
       style="fill:#616574;fill-opacity:1;stroke:#000000;stroke-width:1.5;stroke-linecap:round;stroke-miterlimit:4;stroke-opacity:1;stroke-dashoffset:0"
       inkscape:connector-curvature="0" />
    <path
       inkscape:connector-curvature="0"
       style="fill:#ffffff;fill-opacity:1;stroke:#000000;stroke-width:1.49999988"
       d="m 101.9428,835.25128 c -1.50632,0 -2.738652,1.21805 -2.724294,2.72429 l 0,10.75663 -10.739823,0 c -1.506316,0 -2.724287,1.21798 -2.724287,2.72429 l 0,1.81137 c 0,1.50632 1.218045,2.73925 2.724287,2.7243 l 10.739823,0 0,10.75663 c 0,1.50631 1.217974,2.72428 2.724294,2.72428 l 1.93478,0 c 1.50631,0 2.73864,-1.21803 2.72429,-2.72428 l 0,-10.75663 10.6332,0 c 1.50632,0 2.7243,-1.21798 2.7243,-2.7243 l 0,-1.81137 c 0,-1.50631 -1.21798,-2.72429 -2.7243,-2.72429 l -10.6332,0 0,-10.75663 c 0,-1.5063 -1.21798,-2.72429 -2.72429,-2.72429 z"
       id="path2998"
       sodipodi:nodetypes="sscsssscsssscsssscsss" />
    <path
       inkscape:connector-curvature="0"
       style="fill:#616574;fill-opacity:1;stroke:#000000;stroke-width:1.5;stroke-linecap:round;stroke-miterlimit:4;stroke-opacity:1;stroke-dashoffset:0"
       d="m 213.58911,852.36219 c 0,16.97294 -13.75929,30.73223 -30.73223,30.73223 -16.97294,0 -30.73223,-13.75929 -30.73223,-30.73223 0,-16.97295 13.75929,-30.73224 30.73223,-30.73224 16.97294,0 30.73223,13.75929 30.73223,30.73224 z"
       id="path3005" />
    <path
       id="path3007"
       d="m 182.27924,832.09456 c -1.78422,0 -3.22689,1.44269 -3.22689,3.22689 l 0,13.24616 -13.22625,0 c -1.78421,0 -3.22688,1.44268 -3.22688,3.22688 l 0,1.13539 c 0,1.78421 1.44267,3.22689 3.22688,3.22689 l 13.22625,0 0,13.24616 c 0,1.78421 1.44267,3.22688 3.22689,3.22688 l 1.15529,0 c 1.78421,0 3.22689,-1.44267 3.22689,-3.22688 l 0,-13.24616 13.22623,0 c 1.78421,0 3.22689,-1.44268 3.22689,-3.22689 l 0,-1.13539 c 0,-1.7842 -1.44268,-3.22688 -3.22689,-3.22688 l -13.22623,0 0,-13.24616 c 0,-1.7842 -1.44268,-3.22689 -3.22689,-3.22689 l -1.15529,0 z"
       style="fill:#ffffff;fill-opacity:1;stroke:#000000;stroke-width:1.49999988"
       inkscape:connector-curvature="0" />
  </g>
</svg>
