<?xml version="1.0" encoding="UTF-8" standalone="no"?>
<!-- Created with Inkscape (http://www.inkscape.org/) -->

<svg
   xmlns:dc="http://purl.org/dc/elements/1.1/"
   xmlns:cc="http://creativecommons.org/ns#"
   xmlns:rdf="http://www.w3.org/1999/02/22-rdf-syntax-ns#"
   xmlns:svg="http://www.w3.org/2000/svg"
   xmlns="http://www.w3.org/2000/svg"
   xmlns:sodipodi="http://sodipodi.sourceforge.net/DTD/sodipodi-0.dtd"
   xmlns:inkscape="http://www.inkscape.org/namespaces/inkscape"
   width="248.70705"
   height="319.98721"
   id="svg19177"
   version="1.1"
   inkscape:version="0.48.3.1 r9886"
   sodipodi:docname="emp_d_2_4.svg">
  <defs
     id="defs19179" />
  <sodipodi:namedview
     id="base"
     pagecolor="#ffffff"
     bordercolor="#666666"
     borderopacity="1.0"
     inkscape:pageopacity="0.0"
     inkscape:pageshadow="2"
     inkscape:zoom="0.49497475"
     inkscape:cx="-565.93789"
     inkscape:cy="167.19563"
     inkscape:document-units="px"
     inkscape:current-layer="layer1"
     showgrid="false"
     fit-margin-top="0"
     fit-margin-left="0"
     fit-margin-right="0"
     fit-margin-bottom="0"
     inkscape:window-width="1920"
     inkscape:window-height="1029"
     inkscape:window-x="0"
     inkscape:window-y="26"
     inkscape:window-maximized="1"
     inkscape:object-paths="true"
     inkscape:snap-intersection-paths="true"
     inkscape:object-nodes="true"
     inkscape:snap-smooth-nodes="true"
     inkscape:snap-midpoints="true"
     inkscape:snap-object-midpoints="true"
     inkscape:snap-center="true"
     inkscape:snap-page="true"
     inkscape:snap-bbox="true"
     inkscape:bbox-paths="true"
     inkscape:bbox-nodes="true"
     inkscape:snap-bbox-edge-midpoints="true"
     inkscape:snap-bbox-midpoints="true"
     inkscape:snap-nodes="false">
    <inkscape:grid
       type="xygrid"
       id="grid22230"
       empspacing="5"
       visible="true"
       enabled="true"
       snapvisiblegridlinesonly="true"
       originx="-3685.2666px"
       originy="-798.64621px" />
  </sodipodi:namedview>
  <metadata
     id="metadata19182">
    <rdf:RDF>
      <cc:Work
         rdf:about="">
        <dc:format>image/svg+xml</dc:format>
        <dc:type
           rdf:resource="http://purl.org/dc/dcmitype/StillImage" />
        <dc:title />
      </cc:Work>
    </rdf:RDF>
  </metadata>
  <g
     inkscape:label="Ebene 1"
     inkscape:groupmode="layer"
     id="layer1"
     transform="translate(-4195.9029,104.79713)">
    <path
       style="fill:#cccccf;fill-opacity:1;stroke:#000000;stroke-width:1.5;stroke-opacity:1"
       d="m 4365.8583,6.10221 2.419,2.4887 c 8.189,4.2328 13.324,13.8913 16.331,25.1821 -8.909,0.4782 -9.317,2.1346 -14.859,3.4155 0,0 3.887,-2.2175 -13.819,-0.8536 -7.479,0.5759 -9.992,-3.3579 -10.391,-8.0791 1.191,-4.3535 2.197,-9.0012 2.85,-14.3844 0,-0.01 0,-0.021 -0.04,0.9679 l 4.184,-9.3492 13.33,0.6123 z"
       id="path17215"
       inkscape:connector-curvature="0"
       sodipodi:nodetypes="ccccscccccc" />
    <path
       sodipodi:nodetypes="ccccscccccc"
       inkscape:connector-curvature="0"
       id="path17217"
       d="m 4252.4463,0.89321 -2.637,2.2564 c -8.543,3.4645 -14.541,12.6116 -18.571,23.5792 8.827,1.2927 9.082,2.9796 14.483,4.7631 0,0 -3.666,-2.5643 13.84,0.4167 7.394,1.2593 10.257,-2.4278 11.087,-7.0925 -0.787,-4.4445 -1.363,-9.1648 -1.519,-14.5851 0,-0.01 0,-0.021 0,-0.031 l -3.354,-8.6943 -13.33,-0.6123 z"
       style="fill:#cccccf;fill-opacity:1;stroke:#000000;stroke-width:1.5;stroke-opacity:1" />
    <g
       transform="matrix(0.99894689,0.04588145,-0.04588145,0.99894689,-12618.478,732.13228)"
       id="g17219">
      <path
         style="fill:#666666;fill-opacity:1;stroke:#000000;stroke-width:1.5;stroke-opacity:1"
         d="m 16931.387,-1384.6378 -12,0 c -0.948,3.5106 -2.458,6.7085 -2,11 17.264,6.4402 27,5 28,4 -1,-8 -12,-13 -14,-15 z"
         id="path17221"
         inkscape:connector-curvature="0"
         sodipodi:nodetypes="ccccc" />
      <path
         sodipodi:nodetypes="ccccc"
         inkscape:connector-curvature="0"
         id="path17223"
         d="m 16821.387,-1384.6378 12,0 c 0.947,3.5106 2.458,6.7085 2,11 -17.264,6.4402 -27,5 -28,4 1,-8 12,-13 14,-15 z"
         style="fill:#666666;fill-opacity:1;stroke:#000000;stroke-width:1.5;stroke-opacity:1" />
      <path
         inkscape:connector-curvature="0"
         style="fill:#2d455e;fill-opacity:1;stroke:#000000;stroke-width:1.5;stroke-opacity:1"
         d="m 16814.387,-1448.625 0,15 c -1.993,15.9348 0.269,32.7206 5,50 5.033,3.2576 13.979,1.4959 15,0 -2.919,-14.6345 -4.146,-25.202 -3.219,-35 l 0.03,0 c 25.047,-5 70.119,-5 90.156,0 l 0.25,0 c 0.928,9.798 -0.299,20.3655 -3.218,35 1.021,1.4959 9.966,3.2576 15,0 4.73,-17.2794 6.992,-34.0652 5,-50 l 0,-15 -124,0 z"
         id="path17225" />
      <path
         sodipodi:nodetypes="ccccc"
         inkscape:connector-curvature="0"
         id="path17227"
         d="m 16826.61,-1522.5314 99.777,0 c 2.316,30.6565 20,49.8936 15,94.8936 -40,-8 -90,-8 -130,0 -5,-45 12.342,-63.4524 15.223,-94.8936 z"
         style="fill:#cccccf;fill-opacity:1;stroke:#000000;stroke-width:1.5;stroke-opacity:1" />
      <path
         style="fill:#888888;fill-opacity:1;stroke:#000000;stroke-width:1.5;stroke-opacity:1"
         d="m 16926.387,-1522.5314 c 2.629,28.6932 17.287,46.5797 16.031,83.6874 l -38.812,-2.7812 c 2.521,-36.7032 -7.054,-54.052 -10.688,-80.9062 z"
         id="path17229"
         inkscape:connector-curvature="0"
         sodipodi:nodetypes="ccccc" />
      <path
         sodipodi:nodetypes="ccccc"
         inkscape:connector-curvature="0"
         id="path17231"
         d="m 16826.606,-1522.5312 c -2.63,28.6932 -17.287,46.5797 -16.031,83.6874 l 38.812,-2.7812 c -2.522,-36.7032 7.053,-54.052 10.688,-80.9062 z"
         style="fill:#888888;fill-opacity:1;stroke:#000000;stroke-width:1.5;stroke-opacity:1" />
      <path
         style="fill:#ffbda7;fill-opacity:1;stroke:#000000;stroke-width:1.5;stroke-opacity:1"
         d="m 16876.509,-1582.6249 c -30.991,0 -56.896,19.9753 -63.469,46.75 -0.532,-0.103 -1.095,-0.1563 -1.656,-0.1563 -4.743,0 -8.563,3.8204 -8.563,8.5625 0,4.7421 3.82,8.5938 8.563,8.5938 0.04,0 0.08,6e-4 0.125,0 2.046,31.4935 30.372,56.4374 65,56.4374 34.627,0 62.922,-24.9439 64.968,-56.4374 4.699,-0.051 8.5,-3.8834 8.5,-8.5938 0,-4.7421 -3.851,-8.5625 -8.593,-8.5625 -0.484,0 -0.945,0.048 -1.407,0.125 -6.583,-26.7615 -32.488,-46.7188 -63.468,-46.7187 z"
         id="path17233"
         inkscape:connector-curvature="0" />
      <path
         inkscape:connector-curvature="0"
         id="path17235"
         d="m 16860.387,-1507.6378 34.088,1.8144"
         style="fill:none;stroke:#000000;stroke-width:1.5;stroke-linecap:butt;stroke-linejoin:miter;stroke-opacity:1"
         sodipodi:nodetypes="cc" />
      <path
         sodipodi:nodetypes="ccccccccccccccscccccccc"
         inkscape:connector-curvature="0"
         id="path17237"
         d="m 16855.592,-1588.9648 c -10.417,4.1306 -11.475,7.5207 -20.119,12.294 -32.553,12.7796 -23.232,35.2682 -25.346,40.9096 6.439,1.6001 7.71,1.3093 9.813,8.2813 l 8.75,0 c -6.342,-21.3681 6.021,-11.8471 6.718,-32.7813 l 4.67,6.5045 0.616,-10.0982 5.433,3.9687 c 0,0 -0.317,-4.8053 -2.781,-6.8437 11.31,-5.1027 35.217,0.3462 34.366,0.9419 l -6.023,-5.4419 c 0,0 19.97,1.4234 32.375,11.0937 l -1.812,-9 c 7.287,2.0936 15.847,3.7937 19.715,15.3625 l -0.462,10.1496 3.673,-2.9126 c 1.218,4.9967 0.314,14.1396 0.01,19.057 l 7.906,0 c 2.352,-5.5001 3.42,-6.6908 9,-8.5 -4.027,-30.9657 -6.645,-33.5343 -34.715,-50.3681 -14.286,-8.2603 -38.909,-7.4753 -51.788,-2.617 z"
         style="fill:#fdca01;fill-opacity:1;stroke:#000000;stroke-width:1.5;stroke-linecap:butt;stroke-linejoin:miter;stroke-opacity:1" />
      <g
         transform="translate(14446.387,-2000)"
         id="g17239"
         style="stroke:#000000;stroke-width:1.5;stroke-opacity:1">
        <g
           style="stroke:#000000;stroke-width:1.39850664;stroke-opacity:1"
           transform="matrix(1,0,0,1.1504121,3.6209441,-65.669263)"
           id="g17241">
          <path
             inkscape:connector-curvature="0"
             id="path17243"
             transform="matrix(1,0,0,0.86925372,-3.6209441,-473.16152)"
             d="m 2395,1067.375 0,5.75 0,4.25 0,4.25 c 0,3.1866 2.23,5.75 5,5.75 l 20,0 c 2.77,0 5,-2.5634 5,-5.75 l 0,-4.25 0,-4.25 0,-5.75 -5,0 -20,0 -5,0 z"
             style="fill:#ffffff;fill-opacity:1;stroke:#000000;stroke-width:2.5;stroke-linecap:round;stroke-linejoin:round;stroke-miterlimit:4;stroke-opacity:1;stroke-dasharray:none" />
          <path
             inkscape:connector-curvature="0"
             id="path17245"
             transform="matrix(1,0,0,0.86925372,-3.6209441,-473.16152)"
             d="m 2435,1067.375 0,5.75 0,4.25 0,4.25 c 0,3.1866 2.23,5.75 5,5.75 l 20,0 c 2.77,0 5,-2.5634 5,-5.75 l 0,-4.25 0,-4.25 0,-5.75 -5,0 -20,0 -5,0 z"
             style="fill:#ffffff;fill-opacity:1;stroke:#000000;stroke-width:2.5;stroke-linecap:round;stroke-linejoin:round;stroke-miterlimit:4;stroke-opacity:1;stroke-dasharray:none" />
        </g>
        <path
           inkscape:connector-curvature="0"
           id="path17247"
           d="m 2373,462.36218 22,0"
           style="fill:none;stroke:#000000;stroke-width:4;stroke-linecap:butt;stroke-linejoin:miter;stroke-miterlimit:4;stroke-opacity:1;stroke-dasharray:none"
           sodipodi:nodetypes="cc" />
        <path
           style="fill:none;stroke:#000000;stroke-width:2.5;stroke-linecap:butt;stroke-linejoin:miter;stroke-miterlimit:4;stroke-opacity:1;stroke-dasharray:none"
           d="m 2425,462.36218 10,0"
           id="path17249"
           inkscape:connector-curvature="0" />
        <path
           style="fill:none;stroke:#000000;stroke-width:4;stroke-linecap:butt;stroke-linejoin:miter;stroke-miterlimit:4;stroke-opacity:1;stroke-dasharray:none"
           d="m 2465,462.36218 22,0"
           id="path17251"
           inkscape:connector-curvature="0"
           sodipodi:nodetypes="cc" />
      </g>
      <path
         sodipodi:open="true"
         sodipodi:end="2.3561945"
         sodipodi:start="0.78539816"
         d="m 257.25458,214.61141 c -26.03628,26.03628 -68.24943,26.03628 -94.28571,0 0,0 0,0 0,0"
         sodipodi:ry="66.670067"
         sodipodi:rx="66.670067"
         sodipodi:cy="167.46855"
         sodipodi:cx="210.11172"
         id="path17253"
         style="fill:none;stroke:#000000;stroke-width:2.73706293;stroke-opacity:1"
         sodipodi:type="arc"
         transform="matrix(0.5703717,0,0,0.52656864,16756.657,-1600.7151)" />
      <g
         style="fill:#fdca01;stroke:#000000;stroke-width:1.843768;stroke-opacity:1"
         id="g17255"
         transform="matrix(0.81246791,0,0,0.81463632,15077.826,-1913.4374)">
        <path
           style="fill:#fdca01;fill-opacity:1;stroke:#000000;stroke-width:1.843768;stroke-opacity:1"
           d="m 2235.4199,488.24548 c 0.9531,0.5401 -6.5878,1.2668 -5.5244,1.7559 2.0652,1.0785 3.7714,1.7303 7.2489,2.825 -3.5722,2.7111 -11.4793,-0.3791 -12.597,-2.5889 l 2.6891,4.5733 -6.2564,-3.6587 c -5.4468,-2.8293 -5.2074,-5.8363 -5.4466,-8.8283 10.4599,3.113 12.2998,5.1233 19.8864,5.9217 z"
           id="path17257"
           inkscape:connector-curvature="0"
           sodipodi:nodetypes="cccscccc" />
        <path
           sodipodi:nodetypes="cccscccc"
           inkscape:connector-curvature="0"
           id="path17259"
           d="m 2192.258,488.24548 c -0.9531,0.5401 6.5878,1.2668 5.5244,1.7559 -2.0652,1.0785 -3.7714,1.7303 -7.2489,2.825 3.5722,2.7111 11.4793,-0.3791 12.597,-2.5889 l -2.6891,4.5733 6.2564,-3.6587 c 5.4468,-2.8293 5.2074,-5.8363 5.4466,-8.8283 -10.4599,3.113 -12.2998,5.1233 -19.8864,5.9217 z"
           style="fill:#fdca01;fill-opacity:1;stroke:#000000;stroke-width:1.843768;stroke-opacity:1" />
      </g>
    </g>
    <g
       transform="translate(-12556.142,1502.0779)"
       id="g17263">
      <rect
         ry="12"
         rx="12"
         y="-1427.6378"
         x="16752.795"
         height="140"
         width="247.20703"
         id="rect17265"
         style="fill:#865a28;fill-opacity:1;stroke:#000000;stroke-width:1.5;stroke-linecap:round;stroke-linejoin:round;stroke-miterlimit:4;stroke-opacity:1;stroke-dasharray:none" />
      <rect
         ry="12"
         style="fill:#aa7332;fill-opacity:1;stroke:#000000;stroke-width:1.5;stroke-linecap:round;stroke-linejoin:round;stroke-miterlimit:4;stroke-opacity:1;stroke-dasharray:none"
         id="rect17267"
         width="247.20703"
         height="55.000004"
         x="16752.795"
         y="-1427.6378"
         rx="12" />
      <g
         transform="translate(6880.0027,-970)"
         id="g17269">
        <g
           id="g17271"
           style="fill:#666666;fill-opacity:1;stroke:#000000;stroke-width:1.77397656;stroke-opacity:1"
           transform="matrix(0.84555797,0,0,0.84555797,10021.763,-3112.8338)">
          <rect
             y="3151.9968"
             x="-95.000084"
             height="20.365465"
             width="130"
             id="rect17273"
             style="fill:#888888;fill-opacity:1;stroke:#000000;stroke-width:1.77397656;stroke-opacity:1" />
          <rect
             style="fill:#888888;fill-opacity:1;stroke:#000000;stroke-width:1.77397656;stroke-opacity:1"
             id="rect17275"
             width="130"
             height="5.0001183"
             x="-95.000084"
             y="3167.3621" />
        </g>
      </g>
    </g>
    <g
       transform="matrix(-0.99894689,-0.04588145,-0.04588145,0.99894689,21980.7,1920.8605)"
       id="g17277">
      <path
         id="path17279"
         transform="translate(3211.3397,802.67245)"
         d="m 14456.656,-1879.9062 c -4.619,14.989 -4.72,28.1407 -3.906,40 10.04,7.403 20.922,13.3894 32.375,18.4374 l 0.156,-0.25 -0.156,0.5938 4.25,2.1562 c 1.451,4.5598 3.915,4.5112 8.219,5.6876 4.759,0.1369 5.946,-1.0992 6.718,-5.125 0.769,-4.4362 -1.47,-4.7758 -4.187,-6.9063 0.252,-1.1824 -0.779,-2.3544 -1.344,-2.6875 l -3.125,-0.7188 c -1.838,0.3555 -3.834,1.0555 -5.844,2.5313 l -2.874,-1.375 c -5.987,-3.3244 -27.341,-15.7236 -27,-17.9375 -0.675,-14.8787 0.735,-21.6178 3.468,-32.3125 -1.825,-0.7778 -3.524,-1.5188 -6.75,-2.0937 z"
         style="fill:#ffbda7;fill-opacity:1;stroke:#000000;stroke-width:1.5;stroke-opacity:1"
         inkscape:connector-curvature="0" />
      <g
         transform="matrix(0.31688775,-0.75720944,0.75720944,0.31688775,16902.411,330.8889)"
         id="g17281"
         style="stroke:#000000;stroke-width:1.82738864;stroke-opacity:1">
        <path
           inkscape:connector-curvature="0"
           id="path17283"
           d="m 1901.0807,268.33697 0.569,4.77211"
           style="fill:none;stroke:#000000;stroke-width:1.82738864;stroke-linecap:butt;stroke-linejoin:miter;stroke-opacity:1"
           sodipodi:nodetypes="cc" />
        <path
           style="fill:none;stroke:#000000;stroke-width:1.82738864;stroke-linecap:butt;stroke-linejoin:miter;stroke-opacity:1"
           d="m 1889.806,272.0498 1.2377,8.79683"
           id="path17285"
           inkscape:connector-curvature="0"
           sodipodi:nodetypes="cc" />
        <path
           inkscape:connector-curvature="0"
           id="path17287"
           d="m 1894.1479,272.02358 0.5275,8.78104"
           style="fill:none;stroke:#000000;stroke-width:1.82738864;stroke-linecap:butt;stroke-linejoin:miter;stroke-opacity:1"
           sodipodi:nodetypes="cc" />
        <path
           sodipodi:nodetypes="cc"
           style="fill:none;stroke:#000000;stroke-width:1.82738864;stroke-linecap:butt;stroke-linejoin:miter;stroke-opacity:1"
           d="m 1898.1626,271.0395 0.5275,8.78104"
           id="path17289"
           inkscape:connector-curvature="0" />
      </g>
    </g>
    <g
       id="g17291"
       transform="matrix(0.84555797,0,0,0.84555797,4411.2355,-2575.837)"
       style="stroke:#000000;stroke-width:1.77397656;stroke-opacity:1">
      <rect
         style="fill:#888888;fill-opacity:1;stroke:#000000;stroke-width:1.77397656;stroke-linecap:round;stroke-linejoin:round;stroke-miterlimit:4;stroke-opacity:1;stroke-dasharray:none"
         id="rect17293"
         width="110.00001"
         height="80.000343"
         x="-85"
         y="3077.3623" />
      <path
         sodipodi:nodetypes="ccccc"
         inkscape:connector-curvature="0"
         id="path17295"
         d="m -53,3174.3623 45.9999924,0 2,13 -49.9999924,0 z"
         style="fill:#888888;fill-opacity:1;stroke:#000000;stroke-width:1.77397656;stroke-linecap:round;stroke-linejoin:round;stroke-miterlimit:4;stroke-opacity:1" />
      <rect
         y="3087.3623"
         x="-75"
         height="60.00058"
         width="90.000008"
         id="rect17297"
         style="fill:#888888;fill-opacity:1;stroke:#000000;stroke-width:1.77397656;stroke-linecap:round;stroke-linejoin:round;stroke-miterlimit:4;stroke-opacity:1;stroke-dasharray:none" />
      <path
         style="fill:#888888;fill-opacity:1;stroke:#000000;stroke-width:1.77397656;stroke-linecap:round;stroke-linejoin:round;stroke-miterlimit:4;stroke-opacity:1"
         d="m -85,3157.3621 110,0 -10,-9.9999 -90,0 z"
         id="path17299"
         inkscape:connector-curvature="0"
         sodipodi:nodetypes="ccccc" />
      <rect
         y="3112.3621"
         x="-40.000008"
         height="70.000122"
         width="20.000008"
         id="rect17301"
         style="fill:#888888;fill-opacity:1;stroke:#000000;stroke-width:1.77397656;stroke-linecap:round;stroke-linejoin:round;stroke-miterlimit:4;stroke-opacity:1;stroke-dasharray:none" />
      <rect
         transform="scale(1,-1)"
         style="fill:#888888;fill-opacity:1;stroke:#000000;stroke-width:1.77397656;stroke-linecap:round;stroke-linejoin:round;stroke-miterlimit:4;stroke-opacity:1;stroke-dasharray:none"
         id="rect17303"
         width="20.000008"
         height="4.9998741"
         x="-40.000008"
         y="-3112.3621" />
      <path
         sodipodi:nodetypes="ccccc"
         inkscape:connector-curvature="0"
         id="path17305"
         d="m -85,3077.3623 110,0 -10,9.9999 -90,0 z"
         style="fill:#888888;fill-opacity:1;stroke:#000000;stroke-width:1.77397656;stroke-linecap:round;stroke-linejoin:round;stroke-miterlimit:4;stroke-opacity:1" />
      <rect
         transform="scale(1,-1)"
         y="-3190.3621"
         x="-55"
         height="2.9998887"
         width="49.999992"
         id="rect17307"
         style="fill:#888888;fill-opacity:1;stroke:#000000;stroke-width:1.77397656;stroke-linecap:round;stroke-linejoin:round;stroke-miterlimit:4;stroke-opacity:1;stroke-dasharray:none" />
    </g>
    <g
       id="g17309"
       transform="matrix(0.99894689,0.04588145,-0.04588145,0.99894689,-13469.212,292.61806)">
      <g
         id="g17311"
         transform="translate(1340,0)">
        <path
           inkscape:connector-curvature="0"
           id="path17313"
           transform="translate(1266.794,802.67467)"
           d="m 15066.656,-1879.9062 c -4.619,14.989 -4.72,28.1407 -3.906,40 10.147,6.3237 28.994,6.724 42.75,7.8437 l 4.656,1 c 2.582,4.0288 4.945,3.3214 9.406,3.3437 4.633,-1.0995 5.453,-2.5677 5.157,-6.6562 -0.406,-4.4837 -2.668,-4.2391 -5.844,-5.5938 -0.06,-1.2072 -1.337,-2.0743 -1.969,-2.25 l -3.187,0.094 c -1.684,0.8192 -3.441,2.0231 -5,3.9688 l -1.594,-0.2813 c -0.03,-0.013 -0.138,-0.048 -0.187,-0.063 -2.667,-0.7937 -37.379,-4.5418 -37,-7 -0.675,-14.8787 0.735,-21.6178 3.468,-32.3125 -1.825,-0.7778 -3.524,-1.5188 -6.75,-2.0937 z"
           style="fill:#ffbda7;fill-opacity:1;stroke:#000000;stroke-width:1.5;stroke-opacity:1" />
      </g>
      <g
         style="stroke:#000000;stroke-width:1.82738864;stroke-opacity:1"
         id="g17315"
         transform="matrix(0.11010984,-0.81342474,0.81342474,0.11010984,17294.519,479.50312)">
        <path
           sodipodi:nodetypes="cc"
           style="fill:none;stroke:#000000;stroke-width:1.82738864;stroke-linecap:butt;stroke-linejoin:miter;stroke-opacity:1"
           d="m 1901.0807,268.33697 0.569,4.77211"
           id="path17317"
           inkscape:connector-curvature="0" />
        <path
           sodipodi:nodetypes="cc"
           inkscape:connector-curvature="0"
           id="path17319"
           d="m 1889.806,272.0498 1.2377,8.79683"
           style="fill:none;stroke:#000000;stroke-width:1.82738864;stroke-linecap:butt;stroke-linejoin:miter;stroke-opacity:1" />
        <path
           sodipodi:nodetypes="cc"
           style="fill:none;stroke:#000000;stroke-width:1.82738864;stroke-linecap:butt;stroke-linejoin:miter;stroke-opacity:1"
           d="m 1894.1479,272.02358 0.5275,8.78104"
           id="path17321"
           inkscape:connector-curvature="0" />
        <path
           inkscape:connector-curvature="0"
           id="path17323"
           d="m 1898.1626,271.0395 0.5275,8.78104"
           style="fill:none;stroke:#000000;stroke-width:1.82738864;stroke-linecap:butt;stroke-linejoin:miter;stroke-opacity:1"
           sodipodi:nodetypes="cc" />
      </g>
    </g>
  </g>
</svg>
