<?xml version="1.0" encoding="UTF-8" standalone="no"?>
<!-- Created with Inkscape (http://www.inkscape.org/) -->

<svg
   xmlns:dc="http://purl.org/dc/elements/1.1/"
   xmlns:cc="http://creativecommons.org/ns#"
   xmlns:rdf="http://www.w3.org/1999/02/22-rdf-syntax-ns#"
   xmlns:svg="http://www.w3.org/2000/svg"
   xmlns="http://www.w3.org/2000/svg"
   xmlns:sodipodi="http://sodipodi.sourceforge.net/DTD/sodipodi-0.dtd"
   xmlns:inkscape="http://www.inkscape.org/namespaces/inkscape"
   width="248.70705"
   height="319.98721"
   id="svg19177"
   version="1.1"
   inkscape:version="0.48.3.1 r9886"
   sodipodi:docname="emp_d_2_6.svg">
  <defs
     id="defs19179" />
  <sodipodi:namedview
     id="base"
     pagecolor="#ffffff"
     bordercolor="#666666"
     borderopacity="1.0"
     inkscape:pageopacity="0.0"
     inkscape:pageshadow="2"
     inkscape:zoom="0.49497475"
     inkscape:cx="-1318.1336"
     inkscape:cy="379.36154"
     inkscape:document-units="px"
     inkscape:current-layer="layer1"
     showgrid="false"
     fit-margin-top="0"
     fit-margin-left="0"
     fit-margin-right="0"
     fit-margin-bottom="0"
     inkscape:window-width="1920"
     inkscape:window-height="1029"
     inkscape:window-x="0"
     inkscape:window-y="26"
     inkscape:window-maximized="1"
     inkscape:object-paths="true"
     inkscape:snap-intersection-paths="true"
     inkscape:object-nodes="true"
     inkscape:snap-smooth-nodes="true"
     inkscape:snap-midpoints="true"
     inkscape:snap-object-midpoints="true"
     inkscape:snap-center="true"
     inkscape:snap-page="true"
     inkscape:snap-bbox="true"
     inkscape:bbox-paths="true"
     inkscape:bbox-nodes="true"
     inkscape:snap-bbox-edge-midpoints="true"
     inkscape:snap-bbox-midpoints="true"
     inkscape:snap-nodes="false">
    <inkscape:grid
       type="xygrid"
       id="grid22230"
       empspacing="5"
       visible="true"
       enabled="true"
       snapvisiblegridlinesonly="true"
       originx="-2755.2676px"
       originy="-398.64621px" />
  </sodipodi:namedview>
  <metadata
     id="metadata19182">
    <rdf:RDF>
      <cc:Work
         rdf:about="">
        <dc:format>image/svg+xml</dc:format>
        <dc:type
           rdf:resource="http://purl.org/dc/dcmitype/StillImage" />
        <dc:title />
      </cc:Work>
    </rdf:RDF>
  </metadata>
  <g
     inkscape:label="Ebene 1"
     inkscape:groupmode="layer"
     id="layer1"
     transform="translate(-3265.9039,-295.20287)">
    <path
       style="fill:#4884bb;fill-opacity:1;stroke:#000000;stroke-width:1.5;stroke-opacity:1"
       d="m 3446.9963,397.54671 2.531,2.375 c 8.374,3.8527 13.947,13.2654 17.469,24.4063 -8.878,0.8864 -9.209,2.5599 -14.687,4.0937 0,0 3.781,-2.3934 -13.844,-0.2187 -7.445,0.9186 -10.135,-2.8958 -10.75,-7.5938 0.99,-4.4036 1.782,-9.0926 2.187,-14.5 10e-4,-0.01 0,-0.021 0,0.9688 l 3.75,-9.5312 13.344,0 z"
       id="path15250"
       inkscape:connector-curvature="0"
       sodipodi:nodetypes="ccccscccccc" />
    <path
       sodipodi:nodetypes="ccccscccccc"
       inkscape:connector-curvature="0"
       id="path15266"
       d="m 3333.4643,397.54671 -2.531,2.375 c -8.374,3.8527 -13.947,13.2654 -17.469,24.4063 8.878,0.8864 9.209,2.5599 14.687,4.0937 0,0 -3.781,-2.3934 13.844,-0.2187 7.445,0.9186 10.135,-2.8959 10.75,-7.5938 -0.99,-4.4036 -1.782,-9.0926 -2.187,-14.5 0,-0.01 0,-0.021 0,-0.031 l -3.75,-8.5312 -13.344,0 z"
       style="fill:#4884bb;fill-opacity:1;stroke:#000000;stroke-width:1.5;stroke-opacity:1" />
    <g
       id="g15680"
       transform="translate(-12956.142,1502.0779)">
      <path
         style="fill:#cccccf;fill-opacity:1;stroke:#000000;stroke-width:1.5;stroke-opacity:1"
         d="m 16401.387,-984.6378 -12,0 c -0.948,3.5106 -2.458,6.7085 -2,11 17.264,6.4402 27,5 28,4 -1,-8 -12,-13 -14,-15 z"
         id="path15268"
         inkscape:connector-curvature="0"
         sodipodi:nodetypes="ccccc" />
      <path
         sodipodi:nodetypes="ccccc"
         inkscape:connector-curvature="0"
         id="path15270"
         d="m 16291.387,-984.6378 12,0 c 0.948,3.5106 2.458,6.7085 2,11 -17.264,6.4402 -27,5 -28,4 1,-8 12,-13 14,-15 z"
         style="fill:#cccccf;fill-opacity:1;stroke:#000000;stroke-width:1.5;stroke-opacity:1" />
      <path
         inkscape:connector-curvature="0"
         style="fill:#474747;fill-opacity:1;stroke:#000000;stroke-width:1.5;stroke-opacity:1"
         d="m 16284.387,-1048.625 0,15 c -1.993,15.9348 0.269,32.7206 5,50 5.033,3.2576 13.979,1.4959 15,0 -2.919,-14.6345 -4.146,-25.202 -3.219,-35 l 0.03,0 c 25.047,-5 70.119,-5 90.156,0 l 0.25,0 c 0.928,9.798 -0.299,20.3655 -3.218,35 1.021,1.4959 9.966,3.2576 15,0 4.73,-17.2794 6.992,-34.0652 5,-50 l 0,-15 -124,0 z"
         id="path15272" />
      <path
         sodipodi:nodetypes="ccccc"
         inkscape:connector-curvature="0"
         id="path15274"
         d="m 16296.61,-1122.5314 99.777,0 c 2.316,30.6565 20,49.8936 15,94.8936 -40,-8 -90,-8 -130,0 -5,-45 12.342,-63.4524 15.223,-94.8936 z"
         style="fill:#4884bb;fill-opacity:1;stroke:#000000;stroke-width:1.5;stroke-opacity:1" />
      <path
         inkscape:connector-curvature="0"
         id="path15276"
         d="m 16346.509,-1182.6249 c -30.991,0 -56.896,19.9753 -63.469,46.75 -0.532,-0.103 -1.095,-0.1563 -1.656,-0.1563 -4.743,0 -8.563,3.8204 -8.563,8.5625 0,4.7421 3.82,8.5938 8.563,8.5938 0.04,0 0.08,6e-4 0.125,0 2.046,31.4935 30.372,56.4374 65,56.4374 34.627,0 62.922,-24.9439 64.968,-56.4374 4.699,-0.051 8.5,-3.8834 8.5,-8.5938 0,-4.7421 -3.851,-8.5625 -8.593,-8.5625 -0.484,0 -0.945,0.048 -1.407,0.125 -6.583,-26.7615 -32.488,-46.7188 -63.468,-46.7187 z"
         style="fill:#ffbda7;fill-opacity:1;stroke:#000000;stroke-width:1.5;stroke-opacity:1" />
      <path
         inkscape:connector-curvature="0"
         id="path15278"
         d="m 16330.387,-1107.6378 30,0"
         style="fill:none;stroke:#000000;stroke-width:1.5;stroke-linecap:butt;stroke-linejoin:miter;stroke-opacity:1" />
      <path
         sodipodi:nodetypes="cccccccscccccccccccccccccccccccccc"
         inkscape:connector-curvature="0"
         id="path15280"
         d="m 16324.574,-1191.6818 c -5.238,3.9315 -4.772,3.3916 -8.655,8.2187 l -1.888,-3.1629 c -2.346,4.6649 -3.835,7.8866 -8.519,9.9792 -32.553,12.7796 -23.613,35.1133 -25.727,40.7547 5.275,-0.214 9.337,1.5775 10.194,8.4362 l 8.75,5 c -1.248,-4.202 -1.771,-12.2095 -1.803,-14.489 -0.128,-9.3122 7.961,-6.4748 8.521,-23.2923 l 4.67,6.5045 0.616,-10.0982 5.433,3.9687 c 0,0 -0.317,-4.8053 -2.782,-6.8437 21.927,-2.1191 51.608,-4.2836 69.914,2.0828 6.064,3.1938 5.788,10.0187 3.909,13.8693 0.853,-0.1398 2.662,-0.2822 4.799,-2.9959 1.327,4.6531 0.01,7.0371 -0.462,10.1496 l 3.673,-2.9126 c 1.218,4.9967 0.314,19.1396 0.01,24.057 l 7.906,-5 c 2.351,-5.5001 3.419,-6.6908 9,-8.5 -3.666,-28.1834 -5.775,-30.752 -27.336,-43.7781 -3.554,-2.772 -4.464,-3.7956 -4.704,-8.9106 l -2.256,4.7195 c -2.14,-1.2378 -7.446,-11.7673 -7.446,-11.7673 0.676,3.7723 -0.395,5.8459 -3.448,8.1262 -2.838,-2.6104 -6.274,-3.7994 -6.268,-13.1616 -5.302,4.1667 -8.088,9.301 -8.541,15.3328 -2.843,-3.4258 -5.887,-5.5091 -7.661,-16.0626 -3.67,3.9529 -6.73,8.1776 -7.075,13.6084 -0.572,-6.1393 -2.83,-9.4702 -5.627,-11.9027 -1.626,5.9165 -2.938,12.9044 -8.659,14.3546 -0.281,-1.8389 0.667,-4.0874 1.461,-6.2847 z"
         style="fill:#fb8b00;fill-opacity:1;stroke:#000000;stroke-width:1.5;stroke-linecap:butt;stroke-linejoin:miter;stroke-opacity:1" />
      <path
         transform="matrix(0.44997702,0,0,0.44997702,15973.205,-1175.4948)"
         d="m 884.89366,95.242645 c 0,6.136815 -4.97487,11.111675 -11.11168,11.111675 -6.13681,0 -11.11168,-4.97486 -11.11168,-11.111675 0,-6.13681 4.97487,-11.111678 11.11168,-11.111678 6.13681,0 11.11168,4.974868 11.11168,11.111678 z"
         sodipodi:ry="11.111678"
         sodipodi:rx="11.111678"
         sodipodi:cy="95.242645"
         sodipodi:cx="873.78198"
         id="path15282"
         style="fill:#ffffff;fill-opacity:1;stroke:#000000;stroke-width:3.33350348;stroke-miterlimit:4;stroke-opacity:1;stroke-dasharray:none"
         sodipodi:type="arc" />
      <path
         transform="matrix(0.89995404,0,0,0.89995404,15540.023,-1218.3518)"
         d="m 884.89366,95.242645 c 0,6.136815 -4.97487,11.111675 -11.11168,11.111675 -6.13681,0 -11.11168,-4.97486 -11.11168,-11.111675 0,-6.13681 4.97487,-11.111678 11.11168,-11.111678 6.13681,0 11.11168,4.974868 11.11168,11.111678 z"
         sodipodi:ry="11.111678"
         sodipodi:rx="11.111678"
         sodipodi:cy="95.242645"
         sodipodi:cx="873.78198"
         id="path15284"
         style="fill:#ffffff;fill-opacity:1;stroke:#000000;stroke-width:1.66675174;stroke-miterlimit:4;stroke-opacity:1;stroke-dasharray:none"
         sodipodi:type="arc" />
      <path
         sodipodi:nodetypes="ccccccccccccccccc"
         style="fill:#fb8b00;fill-opacity:1;stroke:#000000;stroke-width:1.5;stroke-linecap:butt;stroke-linejoin:miter;stroke-opacity:1"
         d="m 16323.877,-1062.6961 c 1.522,-1.474 2.811,-3.4145 4.883,-3.7881 0.588,2.7519 1.082,6.5415 1.669,8.2331 3.568,-5.7439 2.716,-4.064 4.698,-5.8971 2.001,3.4345 3.166,6.92 3.4,10.796 l 3.516,-8.8388 2.344,6.566 0,0 c 0.833,-3.029 1.297,-6.5252 4.297,-6.8185 1.199,3.9472 4.008,5.0221 6.836,6.0609 -0.48,-2.9226 -1.043,-3.976 -0.436,-7.1974 1.263,1.0338 4.292,4.5534 4.687,6.0466 l 3.088,-9.0194 c 0.132,0.5743 4.35,4.7708 5.363,4.5964 l -1.649,-11.0347 c -10.013,4.1654 -30.144,2.4524 -40.381,0.4005 z"
         id="path15286"
         inkscape:connector-curvature="0" />
    </g>
    <g
       id="g15426"
       transform="translate(-13016.142,1502.0779)">
      <rect
         ry="12"
         rx="12"
         y="-1027.6378"
         x="16282.796"
         height="140"
         width="247.20703"
         id="rect15290"
         style="fill:#865a28;fill-opacity:1;stroke:#000000;stroke-width:1.5;stroke-linecap:round;stroke-linejoin:round;stroke-miterlimit:4;stroke-opacity:1;stroke-dasharray:none" />
      <rect
         ry="12"
         style="fill:#aa7332;fill-opacity:1;stroke:#000000;stroke-width:1.5;stroke-linecap:round;stroke-linejoin:round;stroke-miterlimit:4;stroke-opacity:1;stroke-dasharray:none"
         id="rect15292"
         width="247.20703"
         height="55.000004"
         x="16282.796"
         y="-1027.6378"
         rx="12" />
      <g
         transform="translate(6410.0027,-570)"
         id="g15296">
        <g
           id="g15298"
           style="fill:#666666;fill-opacity:1;stroke:#000000;stroke-width:1.77397656;stroke-opacity:1"
           transform="matrix(0.84555797,0,0,0.84555797,10021.763,-3112.8338)">
          <rect
             y="3151.9968"
             x="-95.000084"
             height="20.365465"
             width="130"
             id="rect15300"
             style="fill:#888888;fill-opacity:1;stroke:#000000;stroke-width:1.77397656;stroke-opacity:1" />
          <rect
             style="fill:#888888;fill-opacity:1;stroke:#000000;stroke-width:1.77397656;stroke-opacity:1"
             id="rect15302"
             width="130"
             height="5.0001183"
             x="-95.000084"
             y="3167.3621" />
        </g>
      </g>
    </g>
    <g
       id="g15436"
       transform="translate(-13016.142,1502.0779)">
      <path
         id="path15254"
         transform="translate(2346.7902,402.65625)"
         d="m 13986.656,-1479.875 c -4.619,14.989 -4.72,28.1408 -3.906,40 10.04,7.403 20.922,13.3894 32.375,18.4375 l 0.25,-0.375 -0.125,0.4375 4.125,2.4375 c 1.161,4.6421 3.591,4.7425 7.813,6.1875 4.741,0.4363 6.007,-0.7182 7.031,-4.6875 1.046,-4.3789 -1.173,-4.8589 -3.75,-7.1563 0.325,-1.1642 -0.614,-2.4132 -1.157,-2.7812 l -3.062,-0.9062 c -1.857,0.2389 -3.902,1.0911 -6,2.4374 l -1.594,-0.7812 c -0.01,0 -0.162,-0.082 -0.187,-0.094 -1.487,-0.696 -28.916,-16.2465 -28.531,-18.75 -0.675,-14.8787 0.735,-21.6177 3.468,-32.3124 -1.825,-0.7778 -3.524,-1.5189 -6.75,-2.0938 z"
         style="fill:#ffbda7;fill-opacity:1;stroke:#000000;stroke-width:1.5;stroke-opacity:1"
         inkscape:connector-curvature="0" />
      <g
         transform="matrix(0.36393234,-0.73575624,0.73575624,0.36393234,15484.609,277.95822)"
         id="g16666-7-0"
         style="stroke:#000000;stroke-width:1.82738864;stroke-opacity:1">
        <path
           inkscape:connector-curvature="0"
           id="path16670-0-8"
           d="m 1901.0807,268.33697 0.569,4.77211"
           style="fill:none;stroke:#000000;stroke-width:1.82738864;stroke-linecap:butt;stroke-linejoin:miter;stroke-opacity:1"
           sodipodi:nodetypes="cc" />
        <path
           style="fill:none;stroke:#000000;stroke-width:1.82738864;stroke-linecap:butt;stroke-linejoin:miter;stroke-opacity:1"
           d="m 1889.806,272.0498 1.2377,8.79683"
           id="path16672-4-0"
           inkscape:connector-curvature="0"
           sodipodi:nodetypes="cc" />
        <path
           inkscape:connector-curvature="0"
           id="path16674-4-5"
           d="m 1894.1479,272.02358 0.5275,8.78104"
           style="fill:none;stroke:#000000;stroke-width:1.82738864;stroke-linecap:butt;stroke-linejoin:miter;stroke-opacity:1"
           sodipodi:nodetypes="cc" />
        <path
           sodipodi:nodetypes="cc"
           style="fill:none;stroke:#000000;stroke-width:1.82738864;stroke-linecap:butt;stroke-linejoin:miter;stroke-opacity:1"
           d="m 1898.1626,271.0395 0.5275,8.78104"
           id="path16676-5-9"
           inkscape:connector-curvature="0" />
      </g>
    </g>
    <g
       id="g15444"
       transform="matrix(-1,0,0,1,19796.593,1502.0617)">
      <path
         style="fill:#ffbda7;fill-opacity:1;stroke:#000000;stroke-width:1.5;stroke-opacity:1"
         d="m 13986.656,-1479.875 c -4.619,14.989 -4.72,28.1408 -3.906,40 10.04,7.403 20.922,13.3894 32.375,18.4375 l 0.25,-0.375 -0.125,0.4375 4.125,2.4375 c 1.161,4.6421 3.591,4.7425 7.813,6.1875 4.741,0.4363 6.007,-0.7182 7.031,-4.6875 1.046,-4.3789 -1.173,-4.8589 -3.75,-7.1563 0.325,-1.1642 -0.614,-2.4132 -1.157,-2.7812 l -3.062,-0.9062 c -1.857,0.2389 -3.902,1.0911 -6,2.4374 l -1.594,-0.7812 c -0.01,0 -0.162,-0.082 -0.187,-0.094 -1.487,-0.696 -28.916,-16.2465 -28.531,-18.75 -0.675,-14.8787 0.735,-21.6177 3.468,-32.3124 -1.825,-0.7778 -3.524,-1.5189 -6.75,-2.0938 z"
         transform="translate(2346.7902,402.65625)"
         id="path15446"
         inkscape:connector-curvature="0" />
      <g
         style="stroke:#000000;stroke-width:1.82738864;stroke-opacity:1"
         id="g15448"
         transform="matrix(0.36393234,-0.73575624,0.73575624,0.36393234,15484.609,277.95822)">
        <path
           sodipodi:nodetypes="cc"
           style="fill:none;stroke:#000000;stroke-width:1.82738864;stroke-linecap:butt;stroke-linejoin:miter;stroke-opacity:1"
           d="m 1901.0807,268.33697 0.569,4.77211"
           id="path15450"
           inkscape:connector-curvature="0" />
        <path
           sodipodi:nodetypes="cc"
           inkscape:connector-curvature="0"
           id="path15452"
           d="m 1889.806,272.0498 1.2377,8.79683"
           style="fill:none;stroke:#000000;stroke-width:1.82738864;stroke-linecap:butt;stroke-linejoin:miter;stroke-opacity:1" />
        <path
           sodipodi:nodetypes="cc"
           style="fill:none;stroke:#000000;stroke-width:1.82738864;stroke-linecap:butt;stroke-linejoin:miter;stroke-opacity:1"
           d="m 1894.1479,272.02358 0.5275,8.78104"
           id="path15454"
           inkscape:connector-curvature="0" />
        <path
           inkscape:connector-curvature="0"
           id="path15456"
           d="m 1898.1626,271.0395 0.5275,8.78104"
           style="fill:none;stroke:#000000;stroke-width:1.82738864;stroke-linecap:butt;stroke-linejoin:miter;stroke-opacity:1"
           sodipodi:nodetypes="cc" />
      </g>
    </g>
    <g
       id="g15304"
       transform="matrix(0.84555797,0,0,0.84555797,3481.2355,-2175.8371)"
       style="stroke:#000000;stroke-width:1.77397656;stroke-opacity:1">
      <rect
         style="fill:#888888;fill-opacity:1;stroke:#000000;stroke-width:1.77397656;stroke-linecap:round;stroke-linejoin:round;stroke-miterlimit:4;stroke-opacity:1;stroke-dasharray:none"
         id="rect15306"
         width="110.00001"
         height="80.000343"
         x="-85"
         y="3077.3623" />
      <path
         sodipodi:nodetypes="ccccc"
         inkscape:connector-curvature="0"
         id="path15308"
         d="m -53,3174.3623 45.9999924,0 2,13 -49.9999924,0 z"
         style="fill:#888888;fill-opacity:1;stroke:#000000;stroke-width:1.77397656;stroke-linecap:round;stroke-linejoin:round;stroke-miterlimit:4;stroke-opacity:1" />
      <rect
         y="3087.3623"
         x="-75"
         height="60.00058"
         width="90.000008"
         id="rect15310"
         style="fill:#888888;fill-opacity:1;stroke:#000000;stroke-width:1.77397656;stroke-linecap:round;stroke-linejoin:round;stroke-miterlimit:4;stroke-opacity:1;stroke-dasharray:none" />
      <path
         style="fill:#888888;fill-opacity:1;stroke:#000000;stroke-width:1.77397656;stroke-linecap:round;stroke-linejoin:round;stroke-miterlimit:4;stroke-opacity:1"
         d="m -85,3157.3621 110,0 -10,-9.9999 -90,0 z"
         id="path15312"
         inkscape:connector-curvature="0"
         sodipodi:nodetypes="ccccc" />
      <rect
         y="3112.3621"
         x="-40.000008"
         height="70.000122"
         width="20.000008"
         id="rect15314"
         style="fill:#888888;fill-opacity:1;stroke:#000000;stroke-width:1.77397656;stroke-linecap:round;stroke-linejoin:round;stroke-miterlimit:4;stroke-opacity:1;stroke-dasharray:none" />
      <rect
         transform="scale(1,-1)"
         style="fill:#888888;fill-opacity:1;stroke:#000000;stroke-width:1.77397656;stroke-linecap:round;stroke-linejoin:round;stroke-miterlimit:4;stroke-opacity:1;stroke-dasharray:none"
         id="rect15316"
         width="20.000008"
         height="4.9998741"
         x="-40.000008"
         y="-3112.3621" />
      <path
         sodipodi:nodetypes="ccccc"
         inkscape:connector-curvature="0"
         id="path15318"
         d="m -85,3077.3623 110,0 -10,9.9999 -90,0 z"
         style="fill:#888888;fill-opacity:1;stroke:#000000;stroke-width:1.77397656;stroke-linecap:round;stroke-linejoin:round;stroke-miterlimit:4;stroke-opacity:1" />
      <rect
         transform="scale(1,-1)"
         y="-3190.3621"
         x="-55"
         height="2.9998887"
         width="49.999992"
         id="rect15320"
         style="fill:#888888;fill-opacity:1;stroke:#000000;stroke-width:1.77397656;stroke-linecap:round;stroke-linejoin:round;stroke-miterlimit:4;stroke-opacity:1;stroke-dasharray:none" />
    </g>
  </g>
</svg>
