<?xml version="1.0" encoding="UTF-8" standalone="no"?>
<!-- Created with Inkscape (http://www.inkscape.org/) -->

<svg
   xmlns:dc="http://purl.org/dc/elements/1.1/"
   xmlns:cc="http://creativecommons.org/ns#"
   xmlns:rdf="http://www.w3.org/1999/02/22-rdf-syntax-ns#"
   xmlns:svg="http://www.w3.org/2000/svg"
   xmlns="http://www.w3.org/2000/svg"
   xmlns:sodipodi="http://sodipodi.sourceforge.net/DTD/sodipodi-0.dtd"
   xmlns:inkscape="http://www.inkscape.org/namespaces/inkscape"
   width="248.70705"
   height="319.98721"
   id="svg19177"
   version="1.1"
   inkscape:version="0.48.3.1 r9886"
   sodipodi:docname="emp_d_4_4.svg">
  <defs
     id="defs19179" />
  <sodipodi:namedview
     id="base"
     pagecolor="#ffffff"
     bordercolor="#666666"
     borderopacity="1.0"
     inkscape:pageopacity="0.0"
     inkscape:pageshadow="2"
     inkscape:zoom="0.35"
     inkscape:cx="-804.51613"
     inkscape:cy="560.51583"
     inkscape:document-units="px"
     inkscape:current-layer="layer1"
     showgrid="false"
     fit-margin-top="0"
     fit-margin-left="0"
     fit-margin-right="0"
     fit-margin-bottom="0"
     inkscape:window-width="1920"
     inkscape:window-height="1029"
     inkscape:window-x="0"
     inkscape:window-y="26"
     inkscape:window-maximized="1"
     inkscape:object-paths="true"
     inkscape:snap-intersection-paths="true"
     inkscape:object-nodes="true"
     inkscape:snap-smooth-nodes="true"
     inkscape:snap-midpoints="true"
     inkscape:snap-object-midpoints="true"
     inkscape:snap-center="true"
     inkscape:snap-page="true"
     inkscape:snap-bbox="true"
     inkscape:bbox-paths="true"
     inkscape:bbox-nodes="true"
     inkscape:snap-bbox-edge-midpoints="true"
     inkscape:snap-bbox-midpoints="true"
     inkscape:snap-nodes="false">
    <inkscape:grid
       type="xygrid"
       id="grid22230"
       empspacing="5"
       visible="true"
       enabled="true"
       snapvisiblegridlinesonly="true"
       originx="-3685.2676px"
       originy="-18.646196px" />
  </sodipodi:namedview>
  <metadata
     id="metadata19182">
    <rdf:RDF>
      <cc:Work
         rdf:about="">
        <dc:format>image/svg+xml</dc:format>
        <dc:type
           rdf:resource="http://purl.org/dc/dcmitype/StillImage" />
        <dc:title />
      </cc:Work>
    </rdf:RDF>
  </metadata>
  <g
     inkscape:label="Ebene 1"
     inkscape:groupmode="layer"
     id="layer1"
     transform="translate(-4195.9039,-675.20288)">
    <g
       id="g18578"
       transform="translate(-13451.278,1502.0779)">
      <g
         style="stroke:#000000;stroke-width:1.5;stroke-opacity:1"
         id="g14240"
         transform="matrix(0.99911531,0.0420548,-0.0420548,0.99911531,15427.058,-2828.3814)">
        <path
           style="fill:#333333;fill-opacity:1;stroke:#000000;stroke-width:1.5;stroke-opacity:1"
           d="m 2485,2125.3622 -12,0 c -0.9475,3.5106 -2.4579,6.7085 -2,11 17.2642,6.4402 27,5 28,4 -1,-8 -12,-13 -14,-15 z"
           id="path14242"
           inkscape:connector-curvature="0"
           sodipodi:nodetypes="ccccc" />
        <path
           sodipodi:nodetypes="ccccc"
           inkscape:connector-curvature="0"
           id="path14244"
           d="m 2375,2125.3622 12,0 c 0.9475,3.5106 2.4579,6.7085 2,11 -17.2642,6.4402 -27,5 -28,4 1,-8 12,-13 14,-15 z"
           style="fill:#333333;fill-opacity:1;stroke:#000000;stroke-width:1.5;stroke-opacity:1" />
        <path
           inkscape:connector-curvature="0"
           style="fill:#2a547b;fill-opacity:1;stroke:#000000;stroke-width:1.5;stroke-opacity:1"
           d="m 2368,2061.375 0,15 c -1.9927,15.9348 0.2694,32.7206 5,50 5.0334,3.2576 13.9786,1.4959 15,0 -2.9191,-14.6345 -4.146,-25.202 -3.2188,-35 l 0.031,0 c 25.0467,-5 70.1189,-5 90.1563,0 l 0.25,0 c 0.9272,9.798 -0.2997,20.3655 -3.2188,35 1.0214,1.4959 9.9666,3.2576 15,0 4.7305,-17.2794 6.9927,-34.0652 5,-50 l 0,-15 -124,0 z"
           id="path14246" />
        <path
           sodipodi:nodetypes="ccccc"
           inkscape:connector-curvature="0"
           id="path14248"
           d="m 2380.2234,1987.4686 99.7766,0 c 2.3164,30.6565 20,49.8936 15,94.8936 -40,-8 -90,-8 -130,0 -5,-45 12.3422,-63.4524 15.2234,-94.8936 z"
           style="fill:#f8f8f8;fill-opacity:1;stroke:#000000;stroke-width:1.5;stroke-opacity:1" />
        <path
           style="fill:#5f3a10;fill-opacity:1;stroke:#000000;stroke-width:1.5;stroke-linecap:butt;stroke-linejoin:miter;stroke-opacity:1"
           d="m 2370.6901,1975.1736 2.1131,17.0898 c 2.0569,6.4062 -1.6256,16.0952 0.1312,33.1696 l -2.3689,-3.5199 -3.7921,8.5115 c -0.1979,-3.9256 -0.3151,-7.964 -2.1315,-9.6237 l -4.6884,8.8138 0.5174,-9.266 c -1.9523,2.2605 -2.6786,4.9954 -6.1419,8.7316 0.7289,-3.6996 1.7722,-7.4417 1.8773,-9.5188 l -7.4973,2.1273 6.0604,-13.7037 -5.6209,1.4272 c 4.203,-5.5019 7.1217,-9.2385 8.7074,-14.5524 3.9727,-14.0373 2.9952,-17.6238 12.8342,-19.6863 z"
           id="path14250"
           inkscape:connector-curvature="0"
           sodipodi:nodetypes="ccccccccccccccc" />
        <path
           sodipodi:nodetypes="ccccccccccccccc"
           inkscape:connector-curvature="0"
           id="path14252"
           d="m 2488.6983,1975.1736 -2.1131,17.0898 c -2.0569,6.4062 1.6256,16.0952 -0.1312,33.1696 l 2.3689,-3.5199 3.7921,8.5115 c 0.1979,-3.9256 0.3151,-7.964 2.1315,-9.6237 l 4.6884,8.8138 -0.5174,-9.266 c 1.9523,2.2605 2.6786,4.9954 6.1419,8.7316 -0.7289,-3.6996 -1.7722,-7.4417 -1.8773,-9.5188 l 7.4973,2.1273 -6.0604,-13.7037 5.6209,1.4272 c -4.203,-5.5019 -7.1217,-9.2385 -8.7074,-14.5524 -3.9727,-14.0373 -2.9952,-17.6238 -12.8342,-19.6863 z"
           style="fill:#5f3a10;fill-opacity:1;stroke:#000000;stroke-width:1.5;stroke-linecap:butt;stroke-linejoin:miter;stroke-opacity:1" />
        <path
           id="path14254"
           d="m 2486.7812,2005.469 2.5313,2.375 c 2.1875,8.6978 9.2989,9.0829 11.4835,26.2365 6.1852,49.9643 -4.1333,52.6505 -44.796,50.357 1.462,-37.9902 4.0107,-46.4787 4,-78.9688 z"
           style="fill:#339900;fill-opacity:1;stroke:#000000;stroke-width:1.5;stroke-opacity:1"
           inkscape:connector-curvature="0"
           sodipodi:nodetypes="cccccc" />
        <path
           sodipodi:nodetypes="cccccc"
           inkscape:connector-curvature="0"
           style="fill:#339900;fill-opacity:1;stroke:#000000;stroke-width:1.5;stroke-opacity:1"
           d="m 2373.2188,2005.4688 -2.5313,2.375 c -2.1875,8.6978 -9.2989,9.0829 -11.4835,26.2365 -6.1852,49.9643 4.1333,52.6505 44.796,50.357 -1.462,-37.9902 -4.0107,-46.4787 -4,-78.9688 z"
           id="path14256" />
        <path
           style="fill:#ffbda7;fill-opacity:1;stroke:#000000;stroke-width:1.5;stroke-opacity:1"
           d="m 6879.7188,-1205.2812 c -30.9904,0 -56.8957,19.9753 -63.4688,46.75 -0.5306,-0.1026 -1.0645,-0.1563 -1.625,-0.1563 -4.7421,0 -8.5938,3.8204 -8.5938,8.5625 0,4.7421 3.8517,8.5938 8.5938,8.5938 0.032,0 0.062,3e-4 0.094,0 2.0465,31.4935 30.3723,56.4374 65,56.4374 34.6276,0 62.9534,-24.9439 65,-56.4374 4.6983,-0.051 8.4687,-3.8834 8.4687,-8.5938 0,-4.7421 -3.8204,-8.5625 -8.5625,-8.5625 -0.4875,0 -0.9721,0.047 -1.4375,0.125 -6.5849,-26.7598 -32.4898,-46.7188 -63.4687,-46.7187 z"
           transform="translate(-4449.607,3132.6563)"
           id="path14258"
           inkscape:connector-curvature="0" />
        <path
           sodipodi:nodetypes="cc"
           style="fill:none;stroke:#000000;stroke-width:1.5;stroke-linecap:butt;stroke-linejoin:miter;stroke-opacity:1"
           d="m 2415.6179,2001.6472 29.692,2.111"
           id="path14260"
           inkscape:connector-curvature="0" />
        <path
           style="fill:#5f3a10;fill-opacity:1;stroke:#000000;stroke-width:1.5;stroke-linecap:butt;stroke-linejoin:miter;stroke-opacity:1"
           d="m 2363.3984,1974.108 c 5.2742,-0.214 9.3368,1.5775 10.1932,8.4362 5.7265,-23.4898 37.1224,-34.1428 55.1864,-46.3423 8.956,8.5032 47.4828,24.2403 57.969,46.3425 2.3511,-5.5001 3.4194,-6.6908 9,-8.5 -5.0032,-34.4529 -43.1839,-55.3441 -68.0467,-46.6417 -33.6063,-5.6148 -54.9841,17.5037 -64.3019,46.7053 z"
           id="path14262"
           inkscape:connector-curvature="0"
           sodipodi:nodetypes="ccccccc" />
        <g
           transform="translate(0.11170773,1509.0914)"
           id="g14264"
           style="stroke:#000000;stroke-width:1.5;stroke-opacity:1">
          <g
             style="stroke:#000000;stroke-width:1.39850664;stroke-opacity:1"
             transform="matrix(1,0,0,1.1504121,3.6209441,-65.669263)"
             id="g14266">
            <rect
               ry="4.3000002"
               style="fill:#ffffff;fill-opacity:1;stroke:#000000;stroke-width:1.86467552;stroke-linecap:round;stroke-linejoin:round;stroke-miterlimit:4;stroke-opacity:1;stroke-dasharray:none"
               id="rect14268"
               width="30.000076"
               height="17.385077"
               x="2391.3792"
               y="454.64703"
               rx="4.3000002" />
            <rect
               ry="4.3000002"
               y="454.64703"
               x="2431.3792"
               height="17.385077"
               width="29.999825"
               id="rect14270"
               style="fill:#ffffff;fill-opacity:1;stroke:#000000;stroke-width:1.86467552;stroke-linecap:round;stroke-linejoin:round;stroke-miterlimit:4;stroke-opacity:1;stroke-dasharray:none"
               rx="4.3000002" />
          </g>
          <path
             inkscape:connector-curvature="0"
             id="path14272"
             d="m 2373,462.36218 22,0"
             style="fill:none;stroke:#000000;stroke-width:4;stroke-linecap:butt;stroke-linejoin:miter;stroke-miterlimit:4;stroke-opacity:1;stroke-dasharray:none"
             sodipodi:nodetypes="cc" />
          <path
             style="fill:none;stroke:#000000;stroke-width:2;stroke-linecap:butt;stroke-linejoin:miter;stroke-opacity:1"
             d="m 2425,462.36218 10,0"
             id="path14274"
             inkscape:connector-curvature="0" />
          <path
             style="fill:none;stroke:#000000;stroke-width:4;stroke-linecap:butt;stroke-linejoin:miter;stroke-miterlimit:4;stroke-opacity:1;stroke-dasharray:none"
             d="m 2465,462.36218 22,0"
             id="path14276"
             inkscape:connector-curvature="0"
             sodipodi:nodetypes="cc" />
        </g>
        <path
           sodipodi:nodetypes="ccccccccccccccccccccccccccccccccccccc"
           inkscape:connector-curvature="0"
           id="path14278"
           d="m 2406.7618,1992.9281 -2.5254,1.6499 c -7.1471,6.2341 -2.0187,26.177 -0.1217,25.2264 l 0,6.75 4.2188,-1.625 c 0,0 2.2287,5.1941 2,6.2187 1.5221,-1.4739 2.8028,-3.4076 4.875,-3.7812 0.5872,2.7518 1.1001,6.5271 1.6875,8.2187 3.5681,-5.7439 2.7049,-4.0731 4.6875,-5.9062 2.0003,3.4345 3.1722,6.9364 3.4062,10.8125 l 3.5,-8.8438 2.3438,6.5625 c 1.2098,-2.6153 3.9626,-3.6045 4.3125,-6.8125 3.9687,3.1165 4.2319,4.9588 6.8437,6.0625 -0.4803,-2.9225 -1.0452,-3.9661 -0.4374,-7.1875 1.2627,1.0338 4.2924,4.5381 4.6874,6.0313 l 3.0626,-9.0313 c 0.1323,0.5744 4.3623,4.7682 5.375,4.5938 -0.7275,-1.1858 -2.0966,-7.5928 -0.5313,-9.2188 l 5.5223,2.125 c -3.5653,-15.9744 2.9052,-27.0252 -3.9227,-31.2136 l -20.2871,-0.5051 0,1.7812 13.8051,0.4206 5.5247,1.9786 0.3788,17.5818 -2.4738,4.3704 -5.6723,3.3361 c -6.8182,2.4215 -15.8863,2.5929 -26.0625,1.6563 -0.9639,-0.1989 -7.2531,-1.9127 -8.3125,-2.125 l -4.7124,-3.4337 -2.0714,-4.343 c -2.1348,-6.4157 -0.4953,-10.2299 0.2525,-17.9268 l 7.6504,-1.8887 11.5059,0.3734 0,-1.7812 z"
           style="fill:#5f3a10;fill-opacity:1;stroke:#000000;stroke-width:1.5;stroke-linecap:butt;stroke-linejoin:miter;stroke-opacity:1" />
      </g>
      <g
         transform="translate(1072.1353,0)"
         id="g14280">
        <rect
           ry="12"
           rx="12"
           y="-647.63782"
           x="16575.797"
           height="140"
           width="247.20703"
           id="rect14282"
           style="fill:#865a28;fill-opacity:1;stroke:#000000;stroke-width:1.5;stroke-linecap:round;stroke-linejoin:round;stroke-miterlimit:4;stroke-opacity:1;stroke-dasharray:none" />
        <rect
           ry="12"
           style="fill:#aa7332;fill-opacity:1;stroke:#000000;stroke-width:1.5;stroke-linecap:round;stroke-linejoin:round;stroke-miterlimit:4;stroke-opacity:1;stroke-dasharray:none"
           id="rect14284"
           width="247.20703"
           height="55.000004"
           x="16575.797"
           y="-647.63782"
           rx="12" />
        <g
           id="g14286"
           transform="translate(6715.0034,-186)">
          <g
             id="g14288"
             style="fill:#666666;fill-opacity:1;stroke:#000000;stroke-width:1.77397656;stroke-opacity:1"
             transform="matrix(0.84555797,0,0,0.84555797,10021.763,-3112.8338)">
            <rect
               y="3151.9968"
               x="-95.000084"
               height="20.365465"
               width="130"
               id="rect14290"
               style="fill:#888888;fill-opacity:1;stroke:#000000;stroke-width:1.77397656;stroke-opacity:1" />
            <rect
               style="fill:#888888;fill-opacity:1;stroke:#000000;stroke-width:1.77397656;stroke-opacity:1"
               id="rect14292"
               width="130"
               height="5.0001183"
               x="-95.000084"
               y="3167.3621" />
          </g>
        </g>
      </g>
      <g
         transform="matrix(0.39238371,-0.72098476,0.72098476,0.39238371,16802.007,619.86611)"
         id="g14294"
         style="stroke:#000000;stroke-width:1.82738864;stroke-opacity:1">
        <path
           style="fill:#ffbda7;fill-opacity:1;stroke:#000000;stroke-width:1.82738864;stroke-linecap:butt;stroke-linejoin:miter;stroke-opacity:1"
           d="m 1889.8691,257.76109 -0.4419,5.80839 c -4.4418,3.77534 -3.214,6.49962 -2.5119,11.88951 2.0845,5.4131 4.0111,6.15766 8.8986,5.13207 5.3466,-1.22317 4.6819,-3.90022 5.7983,-7.95569 1.4471,-0.27339 2.2824,-1.96939 2.3913,-2.76042 l -0.6413,-3.83884 c -1.2641,-1.89894 -3.3098,-3.68049 -5.9134,-5.24456 l 0,-4.29315 z"
           id="path14296"
           inkscape:connector-curvature="0"
           sodipodi:nodetypes="cccccccccc" />
        <path
           inkscape:connector-curvature="0"
           id="path14298"
           d="m 1901.0807,268.33697 0.569,4.77211"
           style="fill:none;stroke:#000000;stroke-width:1.82738864;stroke-linecap:butt;stroke-linejoin:miter;stroke-opacity:1"
           sodipodi:nodetypes="cc" />
        <path
           style="fill:none;stroke:#000000;stroke-width:1.82738864;stroke-linecap:butt;stroke-linejoin:miter;stroke-opacity:1"
           d="m 1889.806,272.0498 1.2377,8.79683"
           id="path14300"
           inkscape:connector-curvature="0"
           sodipodi:nodetypes="cc" />
        <path
           inkscape:connector-curvature="0"
           id="path14302"
           d="m 1894.1479,272.02358 0.5275,8.78104"
           style="fill:none;stroke:#000000;stroke-width:1.82738864;stroke-linecap:butt;stroke-linejoin:miter;stroke-opacity:1"
           sodipodi:nodetypes="cc" />
        <path
           sodipodi:nodetypes="cc"
           style="fill:none;stroke:#000000;stroke-width:1.82738864;stroke-linecap:butt;stroke-linejoin:miter;stroke-opacity:1"
           d="m 1898.1626,271.0395 0.5275,8.78104"
           id="path14304"
           inkscape:connector-curvature="0" />
      </g>
      <path
         sodipodi:nodetypes="cscccc"
         inkscape:connector-curvature="0"
         id="path14306"
         d="m 17698.632,-696.88479 c -2.705,6.48399 -10.246,30.29766 -8.689,41.13573 1.189,8.27656 32.391,18.12226 40.357,19.08674 4.277,0.8098 5.76,-8.04111 6.14,-11.97195 -10.645,-2.25345 -23.121,-6.88426 -31.566,-11.16053 -0.533,-9.55448 5.217,-16.73466 4.368,-24.25241"
         style="fill:#339900;fill-opacity:1;stroke:#000000;stroke-width:1.5" />
      <g
         style="stroke:#000000;stroke-width:1.82738864;stroke-opacity:1"
         id="g14308"
         transform="matrix(-0.47431608,-0.66993152,-0.66993152,0.47431608,18876.352,514.29368)">
        <path
           sodipodi:nodetypes="cccccccccc"
           inkscape:connector-curvature="0"
           id="path14310"
           d="m 1889.8691,257.76109 -0.4419,5.80839 c -4.4418,3.77534 -3.214,6.49962 -2.5119,11.88951 2.0845,5.4131 4.0111,6.15766 8.8986,5.13207 5.3466,-1.22317 4.6819,-3.90022 5.7983,-7.95569 1.4471,-0.27339 2.2824,-1.96939 2.3913,-2.76042 l -0.6413,-3.83884 c -1.2641,-1.89894 -3.3098,-3.68049 -5.9134,-5.24456 l 0,-4.29315 z"
           style="fill:#ffbda7;fill-opacity:1;stroke:#000000;stroke-width:1.82738864;stroke-linecap:butt;stroke-linejoin:miter;stroke-opacity:1" />
        <path
           sodipodi:nodetypes="cc"
           style="fill:none;stroke:#000000;stroke-width:1.82738864;stroke-linecap:butt;stroke-linejoin:miter;stroke-opacity:1"
           d="m 1901.0807,268.33697 0.569,4.77211"
           id="path14312"
           inkscape:connector-curvature="0" />
        <path
           sodipodi:nodetypes="cc"
           inkscape:connector-curvature="0"
           id="path14314"
           d="m 1889.806,272.0498 1.2377,8.79683"
           style="fill:none;stroke:#000000;stroke-width:1.82738864;stroke-linecap:butt;stroke-linejoin:miter;stroke-opacity:1" />
        <path
           sodipodi:nodetypes="cc"
           style="fill:none;stroke:#000000;stroke-width:1.82738864;stroke-linecap:butt;stroke-linejoin:miter;stroke-opacity:1"
           d="m 1894.1479,272.02358 0.5275,8.78104"
           id="path14316"
           inkscape:connector-curvature="0" />
        <path
           inkscape:connector-curvature="0"
           id="path14318"
           d="m 1898.1626,271.0395 0.5275,8.78104"
           style="fill:none;stroke:#000000;stroke-width:1.82738864;stroke-linecap:butt;stroke-linejoin:miter;stroke-opacity:1"
           sodipodi:nodetypes="cc" />
      </g>
      <g
         id="g14320"
         transform="matrix(-0.99911531,-0.0420548,-0.0420548,0.99911531,30705.015,547.11658)">
        <path
           sodipodi:nodetypes="cscccc"
           inkscape:connector-curvature="0"
           id="path14322"
           d="m 12905.601,-695.91968 c -2.43,6.59202 -2.11,36.43309 -0.201,47.21474 1.408,7.95037 23.557,16.27056 31.374,20.62264 4.307,0.62923 7.452,-6.27174 7.667,-10.21511 -11.14,-7.91595 -19.837,-9.33106 -27.044,-16.60191 -0.934,-9.52362 0.509,-21.16495 -0.656,-28.64032"
           style="fill:#339900;fill-opacity:1;stroke:#000000;stroke-width:1.5" />
      </g>
      <g
         id="g14324"
         transform="matrix(0.84555797,0,0,0.84555797,17862.512,-3297.915)"
         style="stroke:#000000;stroke-width:1.77397656;stroke-opacity:1">
        <rect
           style="fill:#888888;fill-opacity:1;stroke:#000000;stroke-width:1.77397656;stroke-linecap:round;stroke-linejoin:round;stroke-miterlimit:4;stroke-opacity:1;stroke-dasharray:none"
           id="rect14326"
           width="110.00001"
           height="80.000343"
           x="-85"
           y="3077.3623" />
        <path
           sodipodi:nodetypes="ccccc"
           inkscape:connector-curvature="0"
           id="path14328"
           d="m -53,3174.3623 45.9999924,0 2,13 -49.9999924,0 z"
           style="fill:#888888;fill-opacity:1;stroke:#000000;stroke-width:1.77397656;stroke-linecap:round;stroke-linejoin:round;stroke-miterlimit:4;stroke-opacity:1" />
        <rect
           y="3087.3623"
           x="-75"
           height="60.00058"
           width="90.000008"
           id="rect14330"
           style="fill:#888888;fill-opacity:1;stroke:#000000;stroke-width:1.77397656;stroke-linecap:round;stroke-linejoin:round;stroke-miterlimit:4;stroke-opacity:1;stroke-dasharray:none" />
        <path
           style="fill:#888888;fill-opacity:1;stroke:#000000;stroke-width:1.77397656;stroke-linecap:round;stroke-linejoin:round;stroke-miterlimit:4;stroke-opacity:1"
           d="m -85,3157.3621 110,0 -10,-9.9999 -90,0 z"
           id="path14332"
           inkscape:connector-curvature="0"
           sodipodi:nodetypes="ccccc" />
        <rect
           y="3112.3621"
           x="-40.000008"
           height="70.000122"
           width="20.000008"
           id="rect14334"
           style="fill:#888888;fill-opacity:1;stroke:#000000;stroke-width:1.77397656;stroke-linecap:round;stroke-linejoin:round;stroke-miterlimit:4;stroke-opacity:1;stroke-dasharray:none" />
        <rect
           transform="scale(1,-1)"
           style="fill:#888888;fill-opacity:1;stroke:#000000;stroke-width:1.77397656;stroke-linecap:round;stroke-linejoin:round;stroke-miterlimit:4;stroke-opacity:1;stroke-dasharray:none"
           id="rect14336"
           width="20.000008"
           height="4.9998741"
           x="-40.000008"
           y="-3112.3621" />
        <path
           sodipodi:nodetypes="ccccc"
           inkscape:connector-curvature="0"
           id="path14338"
           d="m -85,3077.3623 110,0 -10,9.9999 -90,0 z"
           style="fill:#888888;fill-opacity:1;stroke:#000000;stroke-width:1.77397656;stroke-linecap:round;stroke-linejoin:round;stroke-miterlimit:4;stroke-opacity:1" />
        <rect
           transform="scale(1,-1)"
           y="-3190.3621"
           x="-55"
           height="2.9998887"
           width="49.999992"
           id="rect14340"
           style="fill:#888888;fill-opacity:1;stroke:#000000;stroke-width:1.77397656;stroke-linecap:round;stroke-linejoin:round;stroke-miterlimit:4;stroke-opacity:1;stroke-dasharray:none" />
      </g>
    </g>
  </g>
</svg>
