<?xml version="1.0" encoding="UTF-8" standalone="no"?>
<!-- Created with Inkscape (http://www.inkscape.org/) -->

<svg
   xmlns:dc="http://purl.org/dc/elements/1.1/"
   xmlns:cc="http://creativecommons.org/ns#"
   xmlns:rdf="http://www.w3.org/1999/02/22-rdf-syntax-ns#"
   xmlns:svg="http://www.w3.org/2000/svg"
   xmlns="http://www.w3.org/2000/svg"
   xmlns:sodipodi="http://sodipodi.sourceforge.net/DTD/sodipodi-0.dtd"
   xmlns:inkscape="http://www.inkscape.org/namespaces/inkscape"
   width="423.45016"
   height="412.00003"
   id="svg9665"
   version="1.1"
   inkscape:version="0.48.3.1 r9886"
   sodipodi:docname="gamelogo.svg">
  <defs
     id="defs9667" />
  <sodipodi:namedview
     id="base"
     pagecolor="#ffffff"
     bordercolor="#666666"
     borderopacity="1.0"
     inkscape:pageopacity="0.0"
     inkscape:pageshadow="2"
     inkscape:zoom="0.7"
     inkscape:cx="665.44799"
     inkscape:cy="117.62611"
     inkscape:document-units="px"
     inkscape:current-layer="layer1"
     showgrid="false"
     fit-margin-top="10"
     fit-margin-left="10"
     fit-margin-right="10"
     fit-margin-bottom="10"
     inkscape:window-width="1366"
     inkscape:window-height="713"
     inkscape:window-x="0"
     inkscape:window-y="27"
     inkscape:window-maximized="1"
     inkscape:snap-page="true" />
  <metadata
     id="metadata9670">
    <rdf:RDF>
      <cc:Work
         rdf:about="">
        <dc:format>image/svg+xml</dc:format>
        <dc:type
           rdf:resource="http://purl.org/dc/dcmitype/StillImage" />
        <dc:title />
      </cc:Work>
    </rdf:RDF>
  </metadata>
  <g
     inkscape:label="Ebene 1"
     inkscape:groupmode="layer"
     id="layer1"
     transform="translate(-245.41777,-249.21928)">
    <rect
       style="fill:#ffffff;fill-opacity:1;stroke:none"
       id="rect3093"
       width="423.45016"
       height="412.00003"
       x="245.41777"
       y="749.2193" />
    <rect
       style="fill:#666666;fill-opacity:1;stroke:none"
       id="rect4970"
       width="160.00002"
       height="160.00002"
       x="-52.775002"
       y="234.61256" />
    <g
       style="fill:#ffffff;fill-opacity:1"
       id="g4972"
       transform="matrix(0.57142882,0,0,0.57142882,-2459.3521,211.5482)">
      <path
         sodipodi:nodetypes="ccccccc"
         inkscape:connector-curvature="0"
         id="path4974"
         d="m 4372.3411,82.36218 -33.3333,45.66667 20,0 -13.3333,34.33333 33.3333,-45.66667 -20,0 z"
         style="fill:#ffffff;fill-opacity:1;stroke:none" />
      <g
         id="g4976"
         transform="translate(1509.0078,0)"
         style="fill:#ffffff;fill-opacity:1">
        <g
           id="g4978"
           transform="translate(499.49249,129.00001)"
           style="fill:#ffffff;fill-opacity:1">
          <path
             id="path4980"
             transform="translate(-190.64874,-4.93751)"
             d="m 2580.6562,48.3125 c -7.7319,0 -14,6.268012 -14,14 0,7.731988 6.2681,14 14,14 7.732,0 14,-6.268012 14,-14 0,-7.731988 -6.268,-14 -14,-14 z m 0,8 c 3.3138,0 6,2.686289 6,6 0,3.313711 -2.6862,6 -6,6 -3.3137,0 -6,-2.686289 -6,-6 0,-3.313711 2.6863,-6 6,-6 z"
             style="fill:#ffffff;fill-opacity:1;stroke:none"
             inkscape:connector-curvature="0" />
        </g>
        <path
           sodipodi:end="3.1415927"
           sodipodi:start="0"
           sodipodi:type="arc"
           style="fill:#ffffff;fill-opacity:1;stroke:none"
           id="path4982"
           sodipodi:cx="150"
           sodipodi:cy="192.36218"
           sodipodi:rx="60"
           sodipodi:ry="60"
           d="m 210,192.36218 c 0,33.13709 -26.86292,60 -60,60 -33.13708,0 -60,-26.86291 -60,-60 0,0 0,0 0,0 l 60,0 z"
           transform="matrix(0.70833334,0,0,0.83333334,2736.25,12.060362)" />
        <rect
           style="fill:#ffffff;fill-opacity:1;stroke:none"
           id="rect4984"
           width="15.545561"
           height="3.5067892"
           x="2873.947"
           y="172.36218" />
      </g>
    </g>
    <text
       xml:space="preserve"
       style="font-size:41.55123901px;font-style:normal;font-variant:normal;font-weight:300;font-stretch:normal;text-align:center;line-height:100%;letter-spacing:0px;word-spacing:0px;writing-mode:lr-tb;text-anchor:middle;fill:#666666;fill-opacity:1;stroke:none;font-family:Raleway;-inkscape-font-specification:Raleway Light"
       x="27.29336"
       y="469.32178"
       id="text4986"
       sodipodi:linespacing="100%"><tspan
         sodipodi:role="line"
         id="tspan4988"
         x="27.29336"
         y="469.32178"><tspan
           id="tspan4990"
           style="font-size:41.55123901px;font-style:normal;font-variant:normal;font-weight:bold;font-stretch:normal;text-align:center;line-height:100%;writing-mode:lr-tb;text-anchor:middle;fill:#666666;fill-opacity:1;font-family:Raleway;-inkscape-font-specification:Raleway Bold">COFFEE</tspan><tspan
           id="tspan4992"
           style="font-size:41.55123901px;font-style:normal;font-variant:normal;font-weight:500;font-stretch:normal;text-align:center;line-height:100%;writing-mode:lr-tb;text-anchor:middle;fill:#666666;fill-opacity:1;font-family:Raleway;-inkscape-font-specification:Raleway Medium"> LABS</tspan></tspan></text>
    <rect
       style="fill:#784f34;fill-opacity:1;stroke:none"
       id="rect3061"
       width="266.94061"
       height="266.94061"
       x="323.67258"
       y="-320.78073" />
    <text
       xml:space="preserve"
       style="font-size:69.32319641px;font-style:normal;font-variant:normal;font-weight:300;font-stretch:normal;text-align:center;line-height:100%;letter-spacing:0px;word-spacing:0px;writing-mode:lr-tb;text-anchor:middle;fill:#784f34;fill-opacity:1;stroke:none;font-family:Raleway;-inkscape-font-specification:Raleway Light"
       x="458.19028"
       y="70.803413"
       id="text3063"
       sodipodi:linespacing="100%"><tspan
         sodipodi:role="line"
         id="tspan3065"
         x="458.19028"
         y="70.803413"><tspan
           id="tspan3067"
           style="font-size:69.32319641px;font-style:normal;font-variant:normal;font-weight:bold;font-stretch:normal;text-align:center;line-height:100%;writing-mode:lr-tb;text-anchor:middle;fill:#784f34;fill-opacity:1;font-family:Raleway;-inkscape-font-specification:Raleway Bold">COFFEE</tspan><tspan
           id="tspan3069"
           style="font-size:69.32319641px;font-style:normal;font-variant:normal;font-weight:500;font-stretch:normal;text-align:center;line-height:100%;writing-mode:lr-tb;text-anchor:middle;fill:#784f34;fill-opacity:1;font-family:Raleway;-inkscape-font-specification:Raleway Medium"> INC.</tspan></tspan></text>
    <g
       transform="matrix(1.6683786,0,0,1.6683786,2225.6242,-3003.5335)"
       id="g3071"
       style="fill:#ffffff;fill-opacity:1">
      <path
         style="fill:#ffffff;fill-opacity:1;stroke:none"
         d="m -1073.1941,1686.6871 -18.0554,15.6249 0,19.6871 18.0554,0 0,-19.6871 z m 18.0551,0 -18.0551,15.6249 0,19.6871 18.0551,0 0,-19.6871 z m 18.0553,0 -18.0553,15.6249 0,19.6871 18.0553,0 c 0,-15.104 0,-20.2079 0,-35.312 z"
         id="path3073"
         inkscape:connector-curvature="0"
         sodipodi:nodetypes="ccccccccccccccccc" />
      <rect
         style="fill:#ffffff;fill-opacity:1;stroke:none"
         id="rect3075"
         width="6.2499533"
         height="52.499687"
         x="-1035.0006"
         y="1669.5001" />
      <path
         style="fill:#ffffff;fill-opacity:1;stroke:none"
         d="m -1018.5424,1624.5001 -16.6666,22.8333 10,0 -6.6666,17.1667 16.6666,-22.8334 -10,0 z"
         id="path3077"
         inkscape:connector-curvature="0"
         sodipodi:nodetypes="ccccccc" />
    </g>
    <g
       style="font-size:56.83641052px;font-style:normal;font-variant:normal;font-weight:bold;font-stretch:normal;text-align:center;line-height:100%;letter-spacing:0px;word-spacing:0px;writing-mode:lr-tb;text-anchor:middle;fill:#000000;fill-opacity:1;stroke:none;font-family:Comfortaa;-inkscape-font-specification:Comfortaa Bold"
       id="text3559-8">
      <path
         d="m 298.7031,632.33332 c 0.40699,1e-5 0.78627,0.0833 1.13783,0.24977 0.35149,0.14802 0.65677,0.35154 0.91582,0.61055 0.27749,0.25903 0.49025,0.57355 0.6383,0.94357 0.16648,0.35154 0.24973,0.73082 0.24977,1.13784 -4e-5,0.77707 -0.30531,1.48012 -0.91582,2.10916 -4.12585,3.29326 -8.77896,4.93989 -13.95933,4.93989 -6.1425,0 -11.3784,-2.16467 -15.70772,-6.49401 -4.32934,-4.32932 -6.49401,-9.56522 -6.494,-15.70772 -10e-6,-6.12394 2.16466,-11.35059 6.494,-15.67996 4.34782,-4.3478 9.58373,-6.52171 15.70772,-6.52176 5.25438,5e-5 9.99999,1.72993 14.23685,5.18965 0.51801,0.49958 0.77703,1.17488 0.77706,2.02591 -3e-5,0.42557 -0.074,0.8141 -0.22201,1.16559 -0.14805,0.35156 -0.36082,0.66609 -0.6383,0.94357 -0.25906,0.25906 -0.57358,0.46258 -0.94358,0.61055 -0.35156,0.14805 -0.73084,0.22205 -1.13783,0.22202 -0.7216,3e-5 -1.3969,-0.27749 -2.02591,-0.83257 -1.40614,-1.11005 -2.96026,-1.96111 -4.66236,-2.55319 -1.68366,-0.59201 -3.4783,-0.88803 -5.38392,-0.88807 -4.51437,4e-5 -8.37192,1.60041 -11.57265,4.80112 -3.16375,3.16378 -4.74562,7.00282 -4.74562,11.51714 0,4.53287 1.58187,8.38117 4.74562,11.5449 3.18223,3.18225 7.03978,4.77338 11.57265,4.77337 3.86677,10e-6 7.27103,-1.19334 10.21279,-3.58003 0.481,-0.33301 1.05455,-0.50878 1.72064,-0.52729"
         style="font-size:56.83641052px;font-style:normal;font-variant:normal;font-weight:bold;font-stretch:normal;text-align:center;line-height:100%;writing-mode:lr-tb;text-anchor:middle;fill:#000000;fill-opacity:1;stroke:none;font-family:Comfortaa;-inkscape-font-specification:Comfortaa Bold"
         id="path3926" />
      <path
         d="m 326.67727,603.80411 c -2.2942,4e-5 -4.39411,0.39782 -6.29974,1.19334 -1.88717,0.7956 -3.63555,1.99819 -5.24516,3.60778 -1.60964,1.60966 -2.81223,3.35804 -3.60778,5.24516 -0.77707,1.88717 -1.1656,3.97783 -1.16559,6.27198 -10e-6,4.51437 1.59111,8.36267 4.77337,11.5449 3.18223,3.18225 7.03053,4.77338 11.5449,4.77337 4.51432,10e-6 8.36261,-1.59112 11.54489,-4.77337 3.18221,-3.18223 4.77333,-7.03053 4.77337,-11.5449 -4e-5,-4.49582 -1.59116,-8.33486 -4.77337,-11.51714 -3.20078,-3.20071 -7.04907,-4.80108 -11.54489,-4.80112 m 22.20172,16.31826 c -5e-5,6.124 -2.17396,11.3599 -6.52176,15.70772 -4.32937,4.32934 -9.55602,6.49401 -15.67996,6.49401 -6.1425,0 -11.3784,-2.16467 -15.70772,-6.49401 -4.32934,-4.32932 -6.49401,-9.56522 -6.49401,-15.70772 0,-6.12394 2.16467,-11.35059 6.49401,-15.67996 4.34782,-4.3478 9.58372,-6.52171 15.70772,-6.52176 6.10544,5e-5 11.33209,2.17396 15.67996,6.52176 2.18313,2.1832 3.81126,4.56988 4.88438,7.16005 1.09154,2.59023 1.63733,5.4302 1.63738,8.51991"
         style="font-size:56.83641052px;font-style:normal;font-variant:normal;font-weight:bold;font-stretch:normal;text-align:center;line-height:100%;writing-mode:lr-tb;text-anchor:middle;fill:#000000;fill-opacity:1;stroke:none;font-family:Comfortaa;-inkscape-font-specification:Comfortaa Bold"
         id="path3928" />
      <path
         d="m 353.20833,639.38237 0,-38.51999 c -10e-6,-0.40699 0.074,-0.78627 0.22201,-1.13784 0.14801,-0.36998 0.35153,-0.68451 0.61055,-0.94357 0.27752,-0.27748 0.59204,-0.49025 0.94357,-0.6383 0.35153,-0.14797 0.74006,-0.22197 1.1656,-0.22202 l 25.67074,0 c 0.81403,5e-5 1.50783,0.28682 2.08141,0.86032 0.57351,0.57359 0.86028,1.26739 0.86032,2.08141 -4e-5,0.8141 -0.28681,1.50791 -0.86032,2.08141 -0.57358,0.57358 -1.26738,0.86036 -2.08141,0.86032 l -22.72902,0 0,13.37654 16.31827,0 c 0.81404,2e-5 1.50784,0.28679 2.08141,0.86031 0.57352,0.57357 0.86029,1.26737 0.86032,2.08141 -3e-5,0.81409 -0.2868,1.50789 -0.86032,2.08142 -0.57357,0.57356 -1.26737,0.86033 -2.08141,0.86031 l -16.31827,0 0,16.31827 c 0,0.81406 -0.28678,1.50787 -0.86031,2.08141 -0.57355,0.57354 -1.26736,0.86032 -2.08141,0.86032 -0.81407,0 -1.50788,-0.28678 -2.08142,-0.86032 -0.57354,-0.57354 -0.86032,-1.26735 -0.86031,-2.08141"
         style="font-size:56.83641052px;font-style:normal;font-variant:normal;font-weight:bold;font-stretch:normal;text-align:center;line-height:100%;writing-mode:lr-tb;text-anchor:middle;fill:#000000;fill-opacity:1;stroke:none;font-family:Comfortaa;-inkscape-font-specification:Comfortaa Bold"
         id="path3930" />
      <path
         d="m 388.73109,639.38237 0,-38.51999 c -10e-6,-0.40699 0.074,-0.78627 0.22201,-1.13784 0.14801,-0.36998 0.35153,-0.68451 0.61055,-0.94357 0.27752,-0.27748 0.59204,-0.49025 0.94357,-0.6383 0.35153,-0.14797 0.74006,-0.22197 1.16559,-0.22202 l 25.67075,0 c 0.81403,5e-5 1.50783,0.28682 2.08141,0.86032 0.57351,0.57359 0.86028,1.26739 0.86031,2.08141 -3e-5,0.8141 -0.2868,1.50791 -0.86031,2.08141 -0.57358,0.57358 -1.26738,0.86036 -2.08141,0.86032 l -22.72902,0 0,13.37654 16.31827,0 c 0.81404,2e-5 1.50784,0.28679 2.08141,0.86031 0.57352,0.57357 0.86029,1.26737 0.86032,2.08141 -3e-5,0.81409 -0.2868,1.50789 -0.86032,2.08142 -0.57357,0.57356 -1.26737,0.86033 -2.08141,0.86031 l -16.31827,0 0,16.31827 c -10e-6,0.81406 -0.28678,1.50787 -0.86031,2.08141 -0.57356,0.57354 -1.26736,0.86032 -2.08142,0.86032 -0.81406,0 -1.50787,-0.28678 -2.08141,-0.86032 -0.57354,-0.57354 -0.86032,-1.26735 -0.86031,-2.08141"
         style="font-size:56.83641052px;font-style:normal;font-variant:normal;font-weight:bold;font-stretch:normal;text-align:center;line-height:100%;writing-mode:lr-tb;text-anchor:middle;fill:#000000;fill-opacity:1;stroke:none;font-family:Comfortaa;-inkscape-font-specification:Comfortaa Bold"
         id="path3932" />
      <path
         d="m 452.86631,636.44064 c 0.81403,10e-6 1.50783,0.28678 2.08141,0.86032 0.57351,0.57355 0.86028,1.26735 0.86031,2.08141 -3e-5,0.81406 -0.2868,1.50787 -0.86031,2.08141 -0.57358,0.57354 -1.26738,0.86032 -2.08141,0.86032 l -25.67075,0 c -0.42553,0 -0.81406,-0.074 -1.16559,-0.22202 -0.35153,-0.14801 -0.66605,-0.35153 -0.94357,-0.61055 -0.25902,-0.27752 -0.46254,-0.59204 -0.61055,-0.94357 -0.14801,-0.35153 -0.22202,-0.74006 -0.22201,-1.16559 l 0,-38.51999 c -1e-5,-0.40699 0.074,-0.78627 0.22201,-1.13784 0.14801,-0.36998 0.35153,-0.68451 0.61055,-0.94357 0.27752,-0.27748 0.59204,-0.49025 0.94357,-0.6383 0.35153,-0.14797 0.74006,-0.22197 1.16559,-0.22202 l 25.67075,0 c 0.81403,5e-5 1.50783,0.28682 2.08141,0.86032 0.57351,0.57359 0.86028,1.26739 0.86031,2.08141 -3e-5,0.8141 -0.2868,1.50791 -0.86031,2.08141 -0.57358,0.57358 -1.26738,0.86036 -2.08141,0.86032 l -22.72902,0 0,13.37654 16.31827,0 c 0.81404,2e-5 1.50784,0.28679 2.08141,0.86031 0.57352,0.57357 0.86029,1.26737 0.86032,2.08141 -3e-5,0.81409 -0.2868,1.50789 -0.86032,2.08142 -0.57357,0.57356 -1.26737,0.86033 -2.08141,0.86031 l -16.31827,0 0,13.37654 22.72902,0"
         style="font-size:56.83641052px;font-style:normal;font-variant:normal;font-weight:bold;font-stretch:normal;text-align:center;line-height:100%;writing-mode:lr-tb;text-anchor:middle;fill:#000000;fill-opacity:1;stroke:none;font-family:Comfortaa;-inkscape-font-specification:Comfortaa Bold"
         id="path3934" />
      <path
         d="m 488.38907,636.44064 c 0.81403,10e-6 1.50784,0.28678 2.08141,0.86032 0.57352,0.57355 0.86029,1.26735 0.86032,2.08141 -3e-5,0.81406 -0.2868,1.50787 -0.86032,2.08141 -0.57357,0.57354 -1.26738,0.86032 -2.08141,0.86032 l -25.67074,0 c -0.42554,0 -0.81407,-0.074 -1.16559,-0.22202 -0.35153,-0.14801 -0.66605,-0.35153 -0.94357,-0.61055 -0.25903,-0.27752 -0.46254,-0.59204 -0.61055,-0.94357 -0.14801,-0.35153 -0.22202,-0.74006 -0.22202,-1.16559 l 0,-38.51999 c 0,-0.40699 0.074,-0.78627 0.22202,-1.13784 0.14801,-0.36998 0.35152,-0.68451 0.61055,-0.94357 0.27752,-0.27748 0.59204,-0.49025 0.94357,-0.6383 0.35152,-0.14797 0.74005,-0.22197 1.16559,-0.22202 l 25.67074,0 c 0.81403,5e-5 1.50784,0.28682 2.08141,0.86032 0.57352,0.57359 0.86029,1.26739 0.86032,2.08141 -3e-5,0.8141 -0.2868,1.50791 -0.86032,2.08141 -0.57357,0.57358 -1.26738,0.86036 -2.08141,0.86032 l -22.72901,0 0,13.37654 16.31827,0 c 0.81403,2e-5 1.50784,0.28679 2.08141,0.86031 0.57351,0.57357 0.86029,1.26737 0.86031,2.08141 -2e-5,0.81409 -0.2868,1.50789 -0.86031,2.08142 -0.57357,0.57356 -1.26738,0.86033 -2.08141,0.86031 l -16.31827,0 0,13.37654 22.72901,0"
         style="font-size:56.83641052px;font-style:normal;font-variant:normal;font-weight:bold;font-stretch:normal;text-align:center;line-height:100%;writing-mode:lr-tb;text-anchor:middle;fill:#000000;fill-opacity:1;stroke:none;font-family:Comfortaa;-inkscape-font-specification:Comfortaa Bold"
         id="path3936" />
      <path
         d="m 519.77677,639.38237 c -1e-5,0.81406 -0.28679,1.50787 -0.86032,2.08141 -0.57355,0.57354 -1.26736,0.86032 -2.08141,0.86032 -0.81407,0 -1.50787,-0.28678 -2.08141,-0.86032 -0.57355,-0.57354 -0.86032,-1.26735 -0.86032,-2.08141 l 0,-38.51999 c 0,-0.81402 0.28677,-1.50782 0.86032,-2.08141 0.57354,-0.5735 1.26734,-0.86027 2.08141,-0.86032 0.81405,5e-5 1.50786,0.28682 2.08141,0.86032 0.57353,0.57359 0.86031,1.26739 0.86032,2.08141 l 0,38.51999"
         style="font-size:56.83641052px;font-style:normal;font-variant:normal;font-weight:bold;font-stretch:normal;text-align:center;line-height:100%;writing-mode:lr-tb;text-anchor:middle;fill:#000000;fill-opacity:1;stroke:none;font-family:Comfortaa;-inkscape-font-specification:Comfortaa Bold"
         id="path3938" />
      <path
         d="m 525.29944,639.38237 0,-38.51999 c 0,-0.40699 0.074,-0.78627 0.22202,-1.13784 0.14801,-0.36998 0.35152,-0.68451 0.61055,-0.94357 0.27751,-0.27748 0.59204,-0.49025 0.94357,-0.6383 0.35152,-0.14797 0.74005,-0.22197 1.16559,-0.22202 0.86956,5e-5 1.62812,0.36082 2.27568,1.08233 l 24.75492,31.83173 0,-29.97233 c -4e-5,-0.81402 0.28674,-1.50782 0.86031,-2.08141 0.57351,-0.5735 1.26732,-0.86027 2.08142,-0.86032 0.81402,5e-5 1.50783,0.28682 2.08141,0.86032 0.5735,0.57359 0.86028,1.26739 0.86031,2.08141 l 0,38.51999 c -3e-5,0.42553 -0.074,0.81406 -0.22201,1.16559 -0.14805,0.35153 -0.36082,0.66605 -0.6383,0.94357 -0.25906,0.25902 -0.57358,0.46254 -0.94358,0.61055 -0.35156,0.14801 -0.73084,0.22202 -1.13783,0.22202 -0.86961,0 -1.61891,-0.34228 -2.24793,-1.02683 l -24.78267,-31.83172 0,29.91682 c -10e-6,0.81406 -0.28678,1.50787 -0.86032,2.08141 -0.57355,0.57354 -1.26735,0.86032 -2.08141,0.86032 -0.81407,0 -1.50787,-0.28678 -2.08141,-0.86032 -0.57355,-0.57354 -0.86032,-1.26735 -0.86032,-2.08141"
         style="font-size:56.83641052px;font-style:normal;font-variant:normal;font-weight:bold;font-stretch:normal;text-align:center;line-height:100%;writing-mode:lr-tb;text-anchor:middle;fill:#000000;fill-opacity:1;stroke:none;font-family:Comfortaa;-inkscape-font-specification:Comfortaa Bold"
         id="path3940" />
      <path
         d="m 599.42545,632.33332 c 0.40699,1e-5 0.78627,0.0833 1.13783,0.24977 0.35149,0.14802 0.65677,0.35154 0.91583,0.61055 0.27748,0.25903 0.49025,0.57355 0.6383,0.94357 0.16647,0.35154 0.24973,0.73082 0.24976,1.13784 -3e-5,0.77707 -0.30531,1.48012 -0.91582,2.10916 -4.12585,3.29326 -8.77896,4.93989 -13.95933,4.93989 -6.14249,0 -11.3784,-2.16467 -15.70772,-6.49401 -4.32934,-4.32932 -6.494,-9.56522 -6.494,-15.70772 0,-6.12394 2.16466,-11.35059 6.494,-15.67996 4.34783,-4.3478 9.58373,-6.52171 15.70772,-6.52176 5.25438,5e-5 9.99999,1.72993 14.23686,5.18965 0.518,0.49958 0.77702,1.17488 0.77706,2.02591 -4e-5,0.42557 -0.0741,0.8141 -0.22202,1.16559 -0.14805,0.35156 -0.36082,0.66609 -0.6383,0.94357 -0.25906,0.25906 -0.57358,0.46258 -0.94357,0.61055 -0.35157,0.14805 -0.73085,0.22205 -1.13784,0.22202 -0.72159,3e-5 -1.3969,-0.27749 -2.02591,-0.83257 -1.40614,-1.11005 -2.96026,-1.96111 -4.66236,-2.55319 -1.68366,-0.59201 -3.4783,-0.88803 -5.38392,-0.88807 -4.51437,4e-5 -8.37192,1.60041 -11.57265,4.80112 -3.16375,3.16378 -4.74562,7.00282 -4.74562,11.51714 0,4.53287 1.58187,8.38117 4.74562,11.5449 3.18223,3.18225 7.03978,4.77338 11.57265,4.77337 3.86677,10e-6 7.27103,-1.19334 10.21279,-3.58003 0.48101,-0.33301 1.05455,-0.50878 1.72064,-0.52729"
         style="font-size:56.83641052px;font-style:normal;font-variant:normal;font-weight:bold;font-stretch:normal;text-align:center;line-height:100%;writing-mode:lr-tb;text-anchor:middle;fill:#000000;fill-opacity:1;stroke:none;font-family:Comfortaa;-inkscape-font-specification:Comfortaa Bold"
         id="path3942" />
      <path
         d="m 613.7178,638.38329 c -10e-6,1.09159 -0.38854,2.02591 -1.16559,2.80297 -0.75857,0.75856 -1.68364,1.13784 -2.77522,1.13784 -1.09159,0 -2.02591,-0.37928 -2.80296,-1.13784 -0.75856,-0.77706 -1.13784,-1.71138 -1.13784,-2.80297 0,-1.09158 0.37928,-2.01665 1.13784,-2.77521 0.77705,-0.77706 1.71137,-1.16559 2.80296,-1.16559 1.09158,0 2.01665,0.38853 2.77522,1.16559 0.77705,0.75856 1.16558,1.68363 1.16559,2.77521"
         style="font-size:56.83641052px;font-style:normal;font-variant:normal;font-weight:bold;font-stretch:normal;text-align:center;line-height:100%;writing-mode:lr-tb;text-anchor:middle;fill:#000000;fill-opacity:1;stroke:none;font-family:Comfortaa;-inkscape-font-specification:Comfortaa Bold"
         id="path3944" />
    </g>
    <path
       sodipodi:nodetypes="ccccccc"
       inkscape:connector-curvature="0"
       id="path3081"
       d="m 479.1662,270.66195 -63.50235,86.99831 38.10145,0 -25.40091,65.40748 63.50236,-86.9983 -38.10145,0 z"
       style="fill:#fdca01;fill-opacity:1;stroke:#000000;stroke-width:5.09491777" />
    <path
       inkscape:connector-curvature="0"
       style="fill:#cccccf;fill-opacity:1;stroke:#000000;stroke-width:5.09491777"
       d="m 358.50593,442.13778 c 0,52.60712 36.24537,95.25108 80.96142,95.25108 30.59073,0 57.23974,-19.98387 71.01042,-49.43662 4.80089,4.65215 11.33562,7.52296 18.54868,7.52296 14.73002,0 26.66871,-11.9387 26.66871,-26.66871 0,-14.72999 -11.93869,-26.66871 -26.66871,-26.66871 -0.0131,0 -0.0266,-1e-5 -0.0399,0 l -8.55787,0 -80.96143,0 -80.96142,0 z m 170.52052,15.24495 c 6.31303,0 11.42376,5.1109 11.42376,11.42376 0,6.31286 -5.11073,11.42376 -11.42376,11.42376 -6.31284,0 -11.42376,-5.1109 -11.42376,-11.42376 0,-6.31286 5.11092,-11.42376 11.42376,-11.42376 z"
       id="path3087" />
    <path
       style="fill:#666666;fill-opacity:1;stroke:none"
       d="m 869.83518,329.21927 -49.85545,68.30203 29.9133,0 -19.94215,51.35116 49.85545,-68.30203 -29.9133,0 z"
       id="path3106"
       inkscape:connector-curvature="0"
       sodipodi:nodetypes="ccccccc" />
    <path
       inkscape:connector-curvature="0"
       style="fill:#666666;fill-opacity:1;stroke:none"
       d="m 908.97164,463.84828 c -11.56433,0 -20.93931,9.37484 -20.93931,20.9393 0,11.56447 9.37498,20.93931 20.93931,20.93931 11.56448,0 20.93931,-9.37484 20.93931,-20.93931 0,-11.56446 -9.37483,-20.9393 -20.93931,-20.9393 z m 0,11.96531 c 4.95633,0 8.97399,4.01779 8.97399,8.97399 0,4.9562 -4.01766,8.97399 -8.97399,8.97399 -4.95619,0 -8.97399,-4.01779 -8.97399,-8.97399 0,-4.9562 4.0178,-8.97399 8.97399,-8.97399 z"
       id="path3108" />
    <path
       sodipodi:end="3.1415927"
       sodipodi:start="0"
       sodipodi:type="arc"
       style="fill:#666666;fill-opacity:1;stroke:none"
       id="path3110"
       sodipodi:cx="150"
       sodipodi:cy="192.36218"
       sodipodi:rx="60"
       sodipodi:ry="60"
       d="m 210,192.36218 a 60,60 0 1 1 -120,0 l 60,0 z"
       transform="matrix(1.0594292,0,0,1.2463873,679.76111,224.07132)" />
    <rect
       style="fill:#666666;fill-opacity:1;stroke:none"
       id="rect3112"
       width="23.250948"
       height="5.2449813"
       x="885.70972"
       y="463.8291" />
    <text
       xml:space="preserve"
       style="font-size:69.32319641px;font-style:normal;font-variant:normal;font-weight:300;font-stretch:normal;text-align:center;line-height:100%;letter-spacing:0px;word-spacing:0px;writing-mode:lr-tb;text-anchor:middle;fill:#784f34;fill-opacity:1;stroke:none;font-family:Raleway;-inkscape-font-specification:Raleway Light"
       x="458.19028"
       y="870.80341"
       id="text3115"
       sodipodi:linespacing="100%"><tspan
         sodipodi:role="line"
         id="tspan3117"
         x="458.19028"
         y="870.80341"><tspan
           id="tspan3119"
           style="font-size:69.32319641px;font-style:normal;font-variant:normal;font-weight:bold;font-stretch:normal;text-align:center;line-height:100%;writing-mode:lr-tb;text-anchor:middle;fill:#784f34;fill-opacity:1;font-family:Raleway;-inkscape-font-specification:Raleway Bold">COFFEE</tspan><tspan
           id="tspan3121"
           style="font-size:69.32319641px;font-style:normal;font-variant:normal;font-weight:500;font-stretch:normal;text-align:center;line-height:100%;writing-mode:lr-tb;text-anchor:middle;fill:#784f34;fill-opacity:1;font-family:Raleway;-inkscape-font-specification:Raleway Medium"> INC.</tspan></tspan></text>
    <text
       xml:space="preserve"
       style="font-size:44.62204361px;font-style:normal;font-variant:normal;font-weight:bold;font-stretch:normal;text-align:center;line-height:100%;letter-spacing:0px;word-spacing:0px;writing-mode:lr-tb;text-anchor:middle;fill:#000000;fill-opacity:1;stroke:none;font-family:Comfortaa;-inkscape-font-specification:Comfortaa Bold"
       x="1218.1842"
       y="621.00977"
       id="text3891"
       sodipodi:linespacing="100%"><tspan
         sodipodi:role="line"
         id="tspan3893"
         x="1218.1842"
         y="621.00977"><tspan
           id="tspan3895"
           style="font-size:44.62204361px;font-style:normal;font-variant:normal;font-weight:bold;font-stretch:normal;text-align:center;line-height:100%;writing-mode:lr-tb;text-anchor:middle;fill:#000000;fill-opacity:1;stroke:none;font-family:Comfortaa;-inkscape-font-specification:Comfortaa Bold">COFFEE</tspan><tspan
           id="tspan3897"
           style="font-size:44.62204361px;font-style:normal;font-variant:normal;font-weight:bold;font-stretch:normal;text-align:center;line-height:100%;writing-mode:lr-tb;text-anchor:middle;fill:#000000;fill-opacity:1;stroke:none;font-family:Comfortaa;-inkscape-font-specification:Comfortaa Bold"> INC.</tspan></tspan></text>
    <path
       style="fill:#fdca01;fill-opacity:1;stroke:#000000;stroke-width:4"
       d="m 1249.8352,329.21927 -49.8555,68.30203 29.9133,0 -19.9421,51.35116 49.8554,-68.30203 -29.9133,0 z"
       id="path3899"
       inkscape:connector-curvature="0"
       sodipodi:nodetypes="ccccccc" />
    <path
       id="path3901"
       d="m 1155.1053,463.84428 c 0,41.30164 28.4561,74.78125 63.5625,74.78125 24.0166,0 44.9387,-15.68926 55.75,-38.8125 3.7691,3.65239 8.8995,5.90625 14.5625,5.90625 11.5645,0 20.9375,-9.37303 20.9375,-20.9375 0,-11.56446 -9.373,-20.9375 -20.9375,-20.9375 -0.01,0 -0.021,-1e-5 -0.031,0 l -6.7188,0 -63.5625,0 -63.5625,0 z m 133.875,11.96875 c 4.9563,0 8.9687,4.01255 8.9687,8.96875 0,4.9562 -4.0124,8.96875 -8.9687,8.96875 -4.9562,0 -8.9688,-4.01255 -8.9688,-8.96875 0,-4.9562 4.0126,-8.96875 8.9688,-8.96875 z"
       style="fill:#cccccf;fill-opacity:1;stroke:#000000;stroke-width:4"
       inkscape:connector-curvature="0" />
    <text
       xml:space="preserve"
       style="font-size:56.83641052px;font-style:normal;font-variant:normal;font-weight:bold;font-stretch:normal;text-align:center;line-height:100%;letter-spacing:0px;word-spacing:0px;writing-mode:lr-tb;text-anchor:middle;fill:#000000;fill-opacity:1;stroke:none;font-family:Comfortaa;-inkscape-font-specification:Comfortaa Bold"
       x="438.85147"
       y="722.3241"
       id="text3917"
       sodipodi:linespacing="100%"><tspan
         sodipodi:role="line"
         id="tspan3919"
         x="438.85147"
         y="722.3241"><tspan
           id="tspan3921"
           style="font-size:56.83641052px;font-style:normal;font-variant:normal;font-weight:bold;font-stretch:normal;text-align:center;line-height:100%;writing-mode:lr-tb;text-anchor:middle;fill:#000000;fill-opacity:1;stroke:none;font-family:Comfortaa;-inkscape-font-specification:Comfortaa Bold">COFFEE</tspan><tspan
           id="tspan3923"
           style="font-size:56.83641052px;font-style:normal;font-variant:normal;font-weight:bold;font-stretch:normal;text-align:center;line-height:100%;writing-mode:lr-tb;text-anchor:middle;fill:#000000;fill-opacity:1;stroke:none;font-family:Comfortaa;-inkscape-font-specification:Comfortaa Bold"> INC.</tspan></tspan></text>
  </g>
</svg>
