<?xml version="1.0" encoding="UTF-8" standalone="no"?>
<!-- Created with Inkscape (http://www.inkscape.org/) -->

<svg
   xmlns:dc="http://purl.org/dc/elements/1.1/"
   xmlns:cc="http://creativecommons.org/ns#"
   xmlns:rdf="http://www.w3.org/1999/02/22-rdf-syntax-ns#"
   xmlns:svg="http://www.w3.org/2000/svg"
   xmlns="http://www.w3.org/2000/svg"
   xmlns:sodipodi="http://sodipodi.sourceforge.net/DTD/sodipodi-0.dtd"
   xmlns:inkscape="http://www.inkscape.org/namespaces/inkscape"
   width="210mm"
   height="297mm"
   id="svg3413"
   version="1.1"
   inkscape:version="0.48.3.1 r9886"
   sodipodi:docname="Neues Dokument 3">
  <defs
     id="defs3415" />
  <sodipodi:namedview
     id="base"
     pagecolor="#ffffff"
     bordercolor="#666666"
     borderopacity="1.0"
     inkscape:pageopacity="0.0"
     inkscape:pageshadow="2"
     inkscape:zoom="2.8"
     inkscape:cx="156.7039"
     inkscape:cy="575.35325"
     inkscape:document-units="px"
     inkscape:current-layer="layer1"
     showgrid="true"
     inkscape:window-width="1920"
     inkscape:window-height="1029"
     inkscape:window-x="0"
     inkscape:window-y="26"
     inkscape:window-maximized="1">
    <inkscape:grid
       type="xygrid"
       id="grid3502" />
  </sodipodi:namedview>
  <metadata
     id="metadata3418">
    <rdf:RDF>
      <cc:Work
         rdf:about="">
        <dc:format>image/svg+xml</dc:format>
        <dc:type
           rdf:resource="http://purl.org/dc/dcmitype/StillImage" />
        <dc:title></dc:title>
      </cc:Work>
    </rdf:RDF>
  </metadata>
  <g
     inkscape:label="Ebene 1"
     inkscape:groupmode="layer"
     id="layer1">
    <rect
       style="fill:#888888;fill-opacity:1;stroke:none"
       id="rect3213"
       width="29.99992"
       height="29.99992"
       x="10"
       y="457.36218" />
    <rect
       y="412.36234"
       x="190"
       height="29.99992"
       width="29.99992"
       id="rect3101"
       style="fill:#888888;fill-opacity:1;stroke:none" />
    <path
       inkscape:connector-curvature="0"
       id="path3103"
       style="font-size:25.99995422px;font-style:normal;font-variant:normal;font-weight:bold;font-stretch:normal;line-height:125%;letter-spacing:0px;word-spacing:0px;fill:#000000;fill-opacity:1;stroke:none;font-family:Open Sans;-inkscape-font-specification:Open Sans Bold"
       d="m 214.0017,432.0335 c 0,1.90077 -0.68732,3.43106 -2.06209,4.59056 -1.37491,1.14764 -3.29955,1.8351 -5.77408,2.06223 l 0,3.67598 -2.45673,0 0,-3.60423 c -2.91692,-0.0593 -5.47521,-0.57389 -7.67486,-1.54215 l 0,-4.73407 c 1.04015,0.51414 2.28935,0.9684 3.74788,1.3629 1.47039,0.39451 2.77934,0.62757 3.92698,0.69932 l 0,-5.55896 -1.20146,-0.46612 c -2.3669,-0.93252 -4.04662,-1.94259 -5.03875,-3.03048 -0.98026,-1.0999 -1.47039,-2.45673 -1.47039,-4.07063 0,-1.7334 0.67531,-3.15591 2.0262,-4.26768 1.36291,-1.12377 3.25761,-1.80515 5.6844,-2.04428 l 0,-2.74361 2.45673,0 0,2.67185 c 2.73753,0.12006 5.2122,0.66952 7.42372,1.64978 l -1.68551,4.19606 c -1.8649,-0.76514 -3.77769,-1.2314 -5.73821,-1.39878 l 0,5.29003 c 2.33116,0.8965 3.98687,1.67365 4.96713,2.33102 0.99213,0.65751 1.71546,1.38084 2.16972,2.16985 0.46626,0.78902 0.69932,1.70953 0.69932,2.76141 m -5.39752,0.26907 c 0,-0.50213 -0.20312,-0.92644 -0.60963,-1.27321 -0.40651,-0.34662 -1.01614,-0.70525 -1.82902,-1.07589 l 0,4.465 c 1.62576,-0.27487 2.43865,-0.98026 2.43865,-2.1159 m -7.2086,-10.88472 c 0,0.526 0.17938,0.96246 0.53801,1.30908 0.37064,0.33476 0.96232,0.68139 1.77521,1.04001 l 0,-4.21399 c -1.54215,0.22712 -2.31322,0.84876 -2.31322,1.8649" />
    <rect
       style="fill:#888888;fill-opacity:1;stroke:none"
       id="rect3107"
       width="30"
       height="30"
       x="10"
       y="412.36234" />
    <path
       id="path3109"
       d="m 25.007928,412.36231 -12.60258,7.27127 12.60258,7.28711 12.60245,-7.28711 -12.60245,-7.27127 z m -13.12309,8.13884 0,14.5741 12.61836,7.28711 0,-14.57416 -12.61836,-7.28705 z m 26.23027,0 -12.60245,7.28705 0,14.57416 12.60245,-7.28711 0,-14.5741 z"
       style="fill:#000000;fill-opacity:1;stroke:none"
       inkscape:connector-curvature="0" />
    <rect
       y="412.36218"
       x="55"
       height="29.999954"
       width="29.999954"
       id="rect3111"
       style="fill:#888888;fill-opacity:1;stroke:none" />
    <path
       id="path3113"
       d="m 69.999998,412.37517 c -2.38911,0 -4.3125,1.92339 -4.3125,4.3125 0,2.38911 1.92339,4.3125 4.3125,4.3125 2.38911,0 4.34375,-1.92339 4.34375,-4.3125 0,-2.38911 -1.95464,-4.3125 -4.34375,-4.3125 z m -9.8125,6.40625 c -1.87661,0 -3.375,1.52964 -3.375,3.40625 0,1.87661 1.49839,3.40625 3.375,3.40625 1.87661,0 3.40625,-1.52964 3.40625,-3.40625 0,-1.87661 -1.52964,-3.40625 -3.40625,-3.40625 z m 19.625,0 c -1.87661,0 -3.40625,1.52964 -3.40625,3.40625 0,1.87661 1.52964,3.40625 3.40625,3.40625 1.87661,0 3.40625,-1.52964 3.40625,-3.40625 0,-1.87661 -1.52964,-3.40625 -3.40625,-3.40625 z m -9.8125,4.6875 c -3.52681,0 -6.375,2.84816 -6.375,6.375 l 0,12.5 12.75,0 0,-12.5 c 0,-3.52684 -2.84825,-6.375 -6.375,-6.375 z m -9.78125,4.03125 c -2.77028,0 -5.03125,2.26097 -5.03125,5.03125 l 0,9.84375 7.28125,0 0,-12.53125 c 0,-0.57799 0.0946,-1.11506 0.21875,-1.65625 -0.73205,-0.41776 -1.56562,-0.6875 -2.46875,-0.6875 z m 19.59375,0 c -0.89776,0 -1.73975,0.27441 -2.46875,0.6875 0.12367,0.54016 0.1875,1.07953 0.1875,1.65625 l 0,12.53125 7.28125,0 0,-9.84375 c 0,-2.77028 -2.22984,-5.03125 -5,-5.03125 z"
       style="fill:#000000;fill-opacity:1;stroke:none"
       inkscape:connector-curvature="0" />
    <rect
       style="fill:#888888;fill-opacity:1;stroke:none"
       id="rect3115"
       width="29.99992"
       height="29.99992"
       x="100"
       y="412.36237" />
    <path
       id="path3117"
       d="m 115,412.37517 c -8.28427,0 -15.000002,6.71573 -15.000002,15 0,8.28427 6.715732,15 15.000002,15 8.28427,0 15,-6.71573 15,-15 0,-8.28427 -6.71573,-15 -15,-15 z m -4.5,7 c 1.10458,0 2,0.89542 2,2 0,1.10458 -0.89542,2 -2,2 -1.10458,0 -2,-0.89542 -2,-2 0,-1.10458 0.89542,-2 2,-2 z m 9,0 c 1.10457,0 2,0.89543 2,2 0,1.10457 -0.89543,2 -2,2 -1.10457,0 -2,-0.89543 -2,-2 0,-1.10457 0.89543,-2 2,-2 z m -16.5,8 24,0 c 0,6.62742 -5.37258,12 -12,12 -6.62742,0 -12,-5.37258 -12,-12 z"
       style="fill:#000000;fill-opacity:1;stroke:none"
       inkscape:connector-curvature="0" />
    <rect
       style="fill:#888888;fill-opacity:1;stroke:none"
       id="rect3122"
       width="29.99992"
       height="29.99992"
       x="144.99998"
       y="412.36234" />
    <path
       d="m 168.68425,429.36873 c -0.7334,10e-6 -1.30151,0.32021 -1.70432,0.96062 -0.40286,0.63008 -0.60428,1.5339 -0.60426,2.71141 -2e-5,1.18787 0.19624,2.10201 0.58877,2.74241 0.40281,0.63009 0.97609,0.94512 1.71981,0.94512 0.74367,0 1.31178,-0.31503 1.70432,-0.94512 0.39248,-0.6404 0.58874,-1.55454 0.58876,-2.74241 -2e-5,-1.17751 -0.20144,-2.08133 -0.60426,-2.71141 -0.39253,-0.64041 -0.95547,-0.96061 -1.68882,-0.96062 m 0,-2.60296 c 1.92121,1e-5 3.43444,0.55779 4.53969,1.67333 1.10519,1.11556 1.65781,2.64945 1.65784,4.60166 -3e-5,1.95223 -0.55265,3.49645 -1.65784,4.63266 -1.10525,1.12588 -2.61848,1.68882 -4.53969,1.68882 -1.92126,0 -3.43965,-0.56294 -4.55518,-1.68882 -1.10524,-1.13621 -1.65786,-2.68043 -1.65784,-4.63266 -2e-5,-1.94187 0.5526,-3.4706 1.65784,-4.58617 1.11553,-1.12586 2.63392,-1.68881 4.55518,-1.68882 m -14.20783,12.59647 -3.42414,0 14.45574,-23.99991 3.43963,0 -14.47123,23.99991 m -3.17623,-23.99991 c 1.92122,2e-5 3.42929,0.56296 4.52419,1.68882 1.10521,1.11557 1.65782,2.64946 1.65784,4.60166 -2e-5,1.95224 -0.55263,3.49129 -1.65784,4.61716 -1.0949,1.12589 -2.60297,1.68884 -4.52419,1.68882 -1.92124,2e-5 -3.43447,-0.56293 -4.53969,-1.68882 -1.09489,-1.12587 -1.64235,-2.66492 -1.64235,-4.61716 0,-1.9522 0.54746,-3.48609 1.64235,-4.60166 1.10522,-1.12586 2.61845,-1.6888 4.53969,-1.68882 m 0,2.60296 c -0.74372,1e-5 -1.31698,0.32022 -1.71982,0.96061 -0.40284,0.64043 -0.60426,1.5494 -0.60425,2.72691 -1e-5,1.18788 0.20141,2.10717 0.60425,2.7579 0.40284,0.64043 0.9761,0.96063 1.71982,0.96061 0.74369,2e-5 1.3118,-0.32018 1.70432,-0.96061 0.40283,-0.65073 0.60425,-1.57002 0.60426,-2.7579 -1e-5,-1.17751 -0.20143,-2.08648 -0.60426,-2.72691 -0.40285,-0.64039 -0.97096,-0.9606 -1.70432,-0.96061"
       id="path3126"
       inkscape:connector-curvature="0"
       style="font-size:40px;font-style:normal;font-weight:bold;line-height:125%;letter-spacing:0px;word-spacing:0px;fill:#000000;fill-opacity:1;stroke:none;font-family:Sans;-inkscape-font-specification:Sans Bold" />
    <rect
       y="457.36218"
       x="99.999207"
       height="29.99992"
       width="29.99992"
       id="rect3201"
       style="fill:#888888;fill-opacity:1;stroke:none" />
    <rect
       y="457.36221"
       x="55"
       height="29.99992"
       width="29.99992"
       id="rect3207"
       style="fill:#888888;fill-opacity:1;stroke:none" />
    <path
       style="fill:#000000;fill-opacity:1;stroke:none"
       d="m 69.207189,457.48192 c -0.98769,-0.0119 -2.00531,0.37482 -2.00531,0.37482 0,0 -0.0766,0.0858 0.86211,0.88083 0.93893,0.79518 0.93706,2.51134 0.93706,2.51134 l 2.99863,0 c 0,0 0.24811,-0.58066 0.2811,-0.76836 0.033,-0.18793 0.59409,-0.64265 1.31191,-1.34938 0.71785,-0.70677 1.72419,-0.89959 1.72419,-0.89959 0,0 -1.41599,-0.46066 -1.78039,-0.44979 -0.36446,0.01 -1.65327,0.5157 -1.87416,0.44979 -0.22081,-0.0663 -0.36948,-0.0951 -1.51808,-0.58101 -0.28708,-0.12154 -0.60782,-0.16453 -0.93706,-0.16873 z m -0.20614,4.77903 0,0.99331 2.99863,0 0,-0.99331 -2.99863,0 z m 0,1.9866 c -2.60843,2.22679 -4.99234,3.41249 -7.38411,4.96643 -5.94116,3.98172 -8.31698,8.3348 -5.32255,13.79367 2.61756,4.21494 9.30858,4.71643 16.06135,3.917 5.72317,-0.67757 11.81241,-0.20847 12.50054,-4.55412 0.97701,-7.55685 -3.22515,-10.33507 -6.70942,-12.83792 -3.4844,-2.50281 -4.86418,-3.30608 -6.14718,-5.28506 l -2.99863,0 z m 0.43103,4.01064 1.04951,0 0,1.81797 c 1.50543,0.11473 2.52929,0.73352 3.09238,1.8366 0.25272,0.50575 0.37471,1.07357 0.37483,1.7055 l -1.40564,0 c -0.012,-0.91926 -0.36002,-1.58435 -1.04952,-1.98659 -0.31024,-0.18332 -0.64429,-0.26814 -1.01205,-0.2811 l 0,4.46039 c 1.19509,0.36793 1.97502,0.6552 2.34271,0.86216 1.02273,0.57441 1.53679,1.49093 1.53679,2.75497 0,1.24102 -0.42099,2.2257 -1.23693,2.96115 -0.12653,0.11494 -0.27023,0.23308 -0.43108,0.33733 -0.58611,0.34453 -1.31519,0.54952 -2.21149,0.61849 l 0,1.85537 -1.04951,0 0,-1.85537 c -1.83858,-0.11495 -3.02495,-0.88448 -3.54209,-2.28649 -0.17213,-0.47116 -0.25567,-0.98085 -0.24367,-1.55551 l 0,-0.29986 1.42433,0 c 0.0921,0.88501 0.21399,1.47442 0.37484,1.76169 0.0221,0.0348 0.0522,0.0842 0.075,0.13114 0.4252,0.57453 1.06121,0.9078 1.91162,1.01197 l 0,-4.89149 c -1.11472,-0.33326 -1.87703,-0.63115 -2.26768,-0.9183 -0.85035,-0.60913 -1.27441,-1.48604 -1.27441,-2.62378 0,-1.73524 0.84488,-2.86783 2.51134,-3.37346 0.31012,-0.0922 0.65153,-0.16713 1.03075,-0.22489 l 0,-1.81797 z m 0,3.1111 c -1.14919,0.16093 -1.836,0.68524 -2.04279,1.59299 -0.0342,0.16093 -0.0564,0.32943 -0.0564,0.52476 0,1.08016 0.70858,1.80635 2.09904,2.17399 l 0,-4.29174 z m 1.04951,6.03472 0,4.70408 c 0.73545,-0.0804 1.28144,-0.29969 1.64926,-0.65592 0.49417,-0.48266 0.74965,-1.08659 0.74965,-1.79918 0,-0.73539 -0.27305,-1.27436 -0.82462,-1.63048 -0.35624,-0.2183 -0.88477,-0.4231 -1.57429,-0.6185 z"
       id="path3209"
       inkscape:connector-curvature="0" />
    <path
       style="font-size:medium;font-style:normal;font-variant:normal;font-weight:normal;font-stretch:normal;text-indent:0;text-align:start;text-decoration:none;line-height:normal;letter-spacing:normal;word-spacing:normal;text-transform:none;direction:ltr;block-progression:tb;writing-mode:lr-tb;text-anchor:start;baseline-shift:baseline;color:#000000;fill:#000000;fill-opacity:1;stroke:none;stroke-width:2.40000033;marker:none;visibility:visible;display:inline;overflow:visible;enable-background:accumulate;font-family:Sans;-inkscape-font-specification:Sans"
       d="m 16.881279,458.26281 a 1.2001166,1.2001166 0 0 0 -1.06878,1.2187 l 0,6.975 -5.81248,0 0,20.00622 29.99992,0 0,-20.00622 -5.81248,0 0,-6.975 a 1.2001166,1.2001166 0 0 0 -1.18122,-1.2187 l -16.01246,0 a 1.2001166,1.2001166 0 0 0 -0.1124,0 z m 1.3125,2.39998 13.61246,0 0,5.79372 -13.61246,0 0,-5.79372 z m -3.31878,11.19369 a 0.60005831,0.60005831 0 0 1 0.0564,0 0.60005831,0.60005831 0 0 1 0.075,0 l 3.99372,0 a 0.60005831,0.60005831 0 0 1 0.6,0.61873 l 0,2.38126 10.79996,0 0,-2.38126 a 0.60005831,0.60005831 0 0 1 0.54378,-0.61873 0.60005831,0.60005831 0 0 1 0.0564,0 l 3.99375,0 a 0.60005831,0.60005831 0 0 1 0.60001,0.61873 l 0,2.38126 2.4,0 0,1.21872 -2.4,0 0,2.39999 a 0.60005831,0.60005831 0 0 1 -0.60001,0.60001 l -3.99375,0 a 0.60005831,0.60005831 0 0 1 -0.6,-0.60001 l 0,-2.39999 -10.79996,0 0,2.39999 a 0.60005831,0.60005831 0 0 1 -0.6,0.60001 l -3.99372,0 a 0.60005831,0.60005831 0 0 1 -0.6,-0.60001 l 0,-2.39999 -2.39998,0 0,-1.21872 2.39998,0 0,-2.38126 a 0.60005831,0.60005831 0 0 1 0.46872,-0.61873 z m 0.7125,1.21872 0,4.78127 2.8125,0 0,-4.78127 -2.8125,0 z m 16.01246,0 0,4.78127 2.8125,0 0,-4.78127 -2.8125,0 z"
       id="path3217"
       inkscape:connector-curvature="0" />
    <path
       inkscape:connector-curvature="0"
       style="font-size:medium;font-style:normal;font-variant:normal;font-weight:normal;font-stretch:normal;text-indent:0;text-align:start;text-decoration:none;line-height:normal;letter-spacing:normal;word-spacing:normal;text-transform:none;direction:ltr;block-progression:tb;writing-mode:lr-tb;text-anchor:start;baseline-shift:baseline;color:#000000;fill:#000000;fill-opacity:1;stroke:none;stroke-width:2.63583994;marker:none;visibility:visible;display:inline;overflow:visible;enable-background:accumulate;font-family:Sans;-inkscape-font-specification:Sans"
       d="m 114.20334,457.36239 c -0.3167,0.0342 -0.5872,0.07 -0.8529,0.1 -0.034,0.01 -0.047,0 -0.063,0 l -0.4497,0 -0.083,0.49524 -0.6512,3.58586 c -0.9352,0.25014 -1.8261,0.61321 -2.6504,1.08229 l -2.9441,-2.11856 -0.3667,-0.26662 -0.3484,0.26662 c -0.905,0.70225 -1.7119,1.5215 -2.4304,2.40303 l -0.2835,0.34842 0.2468,0.34842 2.0179,2.96253 c -0.5382,0.89425 -0.9436,1.88514 -1.2196,2.91637 l -3.5126,0.55015 -0.4496,0.063 -0.063,0.44953 c -0.073,0.6072 -0.100001,1.21597 -0.100001,1.83458 0,0.5001 0,1.00819 0.063,1.51297 l 0.063,0.42181 0.4217,0.083 3.5309,0.63276 c 0.2735,1.12896 0.6976,2.19523 1.2844,3.16418 l -2.0728,2.86143 -0.2668,0.36714 0.2834,0.33912 c 0.6893,0.85655 1.4674,1.6284 2.3203,2.31115 l 0.3481,0.28344 0.3487,-0.24666 2.9992,-2.05416 c 0.9922,0.58306 2.0712,1.00889 3.2282,1.26551 l 0.5501,3.50338 0.063,0.44946 0.4495,0.0468 c 0.4701,0.0432 0.9382,0.0372 1.3846,0.0372 0.6439,0 1.2757,-0.0342 1.917,-0.1 l 0.4126,-0.063 0.073,-0.4218 0.6789,-3.5953 c 1.095,-0.31344 2.1282,-0.80327 3.0631,-1.41246 l 2.834,2.06365 0.3669,0.28344 0.3667,-0.30348 c 0.8496,-0.72283 1.6142,-1.55808 2.2837,-2.44861 l 0.2467,-0.33012 -0.22,-0.33943 -2.1096,-3.04485 c 0.4891,-0.91723 0.8438,-1.89152 1.0643,-2.93473 l 3.4939,-0.55945 0.4494,-0.0528 0.037,-0.46782 c 0.037,-0.42745 0.037,-0.82957 0.037,-1.24735 0,-0.76021 -0.1,-1.48502 -0.2,-2.18289 l -0.057,-0.43116 -0.4125,-0.063 -3.6139,-0.65119 c -0.2868,-0.91903 -0.6882,-1.77024 -1.183,-2.56771 l 2.1001,-2.87985 0.2668,-0.36702 -0.2833,-0.34854 c -0.7413,-0.90655 -1.5925,-1.75034 -2.5314,-2.46705 l -0.3202,-0.26662 -0.3483,0.24676 -3.0815,2.11856 c -0.7813,-0.42852 -1.6248,-0.76525 -2.513,-0.99961 l -0.5502,-3.54938 -0.063,-0.4494 -0.4495,-0.063 c -0.5775,-0.067 -1.1523,-0.1 -1.7518,-0.1 -0.1434,0 -0.3167,0 -0.4952,0 -0.034,0 -0.1066,0 -0.24,0 0.053,-0.01 0.034,0 -0.063,0 z m 0.4954,9.13483 c 0.1,-0.01 0.2001,0 0.3035,0 3.2425,0 5.8699,2.62699 5.8699,5.86955 0,3.24217 -2.6274,5.8696 -5.8699,5.8696 -3.2419,0 -5.8696,-2.62743 -5.8696,-5.8696 0,-3.14116 2.4653,-5.71259 5.5671,-5.86955 z"
       id="path3219" />
    <rect
       style="fill:#888888;fill-opacity:1;stroke:none"
       id="rect3252"
       width="29.99992"
       height="29.99992"
       x="54.999207"
       y="502.36215" />
    <rect
       style="fill:#888888;fill-opacity:1;stroke:none"
       id="rect3254"
       width="29.99992"
       height="29.99992"
       x="10"
       y="502.36218" />
    <path
       style="font-size:medium;font-style:normal;font-variant:normal;font-weight:normal;font-stretch:normal;text-indent:0;text-align:start;text-decoration:none;line-height:normal;letter-spacing:normal;word-spacing:normal;text-transform:none;direction:ltr;block-progression:tb;writing-mode:lr-tb;text-anchor:start;baseline-shift:baseline;color:#000000;fill:#000000;fill-opacity:1;stroke:none;stroke-width:4;marker:none;visibility:visible;display:inline;overflow:visible;enable-background:accumulate;font-family:Sans;-inkscape-font-specification:Sans"
       d="m 22.265579,505.81527 -9.8125,10.15625 -1.3437,1.40625 1.3437,1.375 9.8125,10.15625 2.875,-2.78125 -6.5312,-6.75 20.2812,0 0,-4 -20.2812,0 6.5312,-6.78125 -2.875,-2.78125 z"
       id="path3315"
       inkscape:connector-curvature="0" />
    <path
       style="font-size:medium;font-style:normal;font-variant:normal;font-weight:normal;font-stretch:normal;text-indent:0;text-align:start;text-decoration:none;line-height:normal;letter-spacing:normal;word-spacing:normal;text-transform:none;direction:ltr;block-progression:tb;writing-mode:lr-tb;text-anchor:start;baseline-shift:baseline;color:#000000;fill:#000000;fill-opacity:1;fill-rule:nonzero;stroke:none;stroke-width:4.00000048;marker:none;visibility:visible;display:inline;overflow:visible;enable-background:accumulate;font-family:Sans;-inkscape-font-specification:Sans"
       d="m 61.406079,505.93741 -2.8124,2.84375 8.5937,8.59375 -8.5937,8.5625 2.8124,2.84375 8.5938,-8.59375 8.5938,8.59375 2.8124,-2.84375 -8.5937,-8.5625 8.5937,-8.59375 -2.8124,-2.84375 -8.5938,8.59375 -8.5938,-8.59375 z"
       id="path14612"
       inkscape:connector-curvature="0" />
    <rect
       y="547.36218"
       x="10"
       height="29.99992"
       width="29.99992"
       id="rect3382"
       style="fill:#888888;fill-opacity:1;stroke:none" />
    <path
       sodipodi:nodetypes="cscscsccccccc"
       style="fill:#000000;stroke:none;display:inline;enable-background:new"
       d="m 35.526933,547.84845 c -2.5302,-0.99386 -5.5202,-0.46017 -7.5651,1.58477 -1.8873,1.88732 -2.475,4.56428 -1.7741,6.95715 l -15.1961,15.19615 c -1.3211995,1.32117 -1.3210995,3.46326 0,4.78394 1.3212,1.3212 3.463,1.3212 4.7842,5e-5 l 15.1962,-15.19617 c 2.3897,0.69599 5.0727,0.11042 6.9571,-1.77401 2.0447,-2.04514 2.5785,-5.03474 1.5847,-7.56508 l -4.216,4.21639 -3.3491,-0.63826 -0.6378,-3.34885 z"
       id="path3411"
       inkscape:connector-curvature="0" />
  </g>
</svg>
