<?xml version="1.0" encoding="UTF-8" standalone="no"?>
<!-- Created with Inkscape (http://www.inkscape.org/) -->

<svg
   xmlns:dc="http://purl.org/dc/elements/1.1/"
   xmlns:cc="http://creativecommons.org/ns#"
   xmlns:rdf="http://www.w3.org/1999/02/22-rdf-syntax-ns#"
   xmlns:svg="http://www.w3.org/2000/svg"
   xmlns="http://www.w3.org/2000/svg"
   xmlns:sodipodi="http://sodipodi.sourceforge.net/DTD/sodipodi-0.dtd"
   xmlns:inkscape="http://www.inkscape.org/namespaces/inkscape"
   width="30"
   height="30"
   id="svg3544"
   version="1.1"
   inkscape:version="0.48.3.1 r9886"
   sodipodi:docname="money.svg">
  <defs
     id="defs3546" />
  <sodipodi:namedview
     id="base"
     pagecolor="#ffffff"
     bordercolor="#666666"
     borderopacity="1.0"
     inkscape:pageopacity="0.0"
     inkscape:pageshadow="2"
     inkscape:zoom="5.6"
     inkscape:cx="-12.80715"
     inkscape:cy="29.017467"
     inkscape:document-units="px"
     inkscape:current-layer="layer1"
     showgrid="true"
     fit-margin-top="0"
     fit-margin-left="0"
     fit-margin-right="0"
     fit-margin-bottom="0"
     inkscape:window-width="647"
     inkscape:window-height="502"
     inkscape:window-x="0"
     inkscape:window-y="51"
     inkscape:window-maximized="0">
    <inkscape:grid
       type="xygrid"
       id="grid3573"
       empspacing="5"
       visible="true"
       enabled="true"
       snapvisiblegridlinesonly="true" />
  </sodipodi:namedview>
  <metadata
     id="metadata3549">
    <rdf:RDF>
      <cc:Work
         rdf:about="">
        <dc:format>image/svg+xml</dc:format>
        <dc:type
           rdf:resource="http://purl.org/dc/dcmitype/StillImage" />
        <dc:title></dc:title>
      </cc:Work>
    </rdf:RDF>
  </metadata>
  <g
     inkscape:label="Ebene 1"
     inkscape:groupmode="layer"
     id="layer1"
     transform="translate(-393.57144,-448.79074)">
    <path
       style="fill:#000000;fill-opacity:1;stroke:none"
       d="m 407.77863,448.91045 c -0.98769,-0.0119 -2.00531,0.37482 -2.00531,0.37482 0,0 -0.0766,0.0858 0.86211,0.88083 0.93893,0.79518 0.93706,2.51134 0.93706,2.51134 l 2.99863,0 c 0,0 0.24811,-0.58066 0.2811,-0.76836 0.033,-0.18793 0.59409,-0.64265 1.31191,-1.34938 0.71785,-0.70677 1.72419,-0.89959 1.72419,-0.89959 0,0 -1.41599,-0.46066 -1.78039,-0.44979 -0.36446,0.01 -1.65327,0.5157 -1.87416,0.44979 -0.22081,-0.0663 -0.36948,-0.0951 -1.51808,-0.58101 -0.28708,-0.12154 -0.60782,-0.16453 -0.93706,-0.16873 z m -0.20614,4.77903 0,0.99331 2.99863,0 0,-0.99331 -2.99863,0 z m 0,1.9866 c -2.60843,2.22679 -4.99234,3.41249 -7.38411,4.96643 -5.94116,3.98172 -8.31698,8.3348 -5.32255,13.79367 2.61756,4.21494 9.30858,4.71643 16.06135,3.917 5.72317,-0.67757 11.81241,-0.20847 12.50054,-4.55412 0.97701,-7.55685 -3.22515,-10.33507 -6.70942,-12.83792 -3.4844,-2.50281 -4.86418,-3.30608 -6.14718,-5.28506 l -2.99863,0 z m 0.43103,4.01064 1.04951,0 0,1.81797 c 1.50543,0.11473 2.52929,0.73352 3.09238,1.8366 0.25272,0.50575 0.37471,1.07357 0.37483,1.7055 l -1.40564,0 c -0.012,-0.91926 -0.36002,-1.58435 -1.04952,-1.98659 -0.31024,-0.18332 -0.64429,-0.26814 -1.01205,-0.2811 l 0,4.46039 c 1.19509,0.36793 1.97502,0.6552 2.34271,0.86216 1.02273,0.57441 1.53679,1.49093 1.53679,2.75497 0,1.24102 -0.42099,2.2257 -1.23693,2.96115 -0.12653,0.11494 -0.27023,0.23308 -0.43108,0.33733 -0.58611,0.34453 -1.31519,0.54952 -2.21149,0.61849 l 0,1.85537 -1.04951,0 0,-1.85537 c -1.83858,-0.11495 -3.02495,-0.88448 -3.54209,-2.28649 -0.17213,-0.47116 -0.25567,-0.98085 -0.24367,-1.55551 l 0,-0.29986 1.42433,0 c 0.0921,0.88501 0.21399,1.47442 0.37484,1.76169 0.0221,0.0348 0.0522,0.0842 0.075,0.13114 0.4252,0.57453 1.06121,0.9078 1.91162,1.01197 l 0,-4.89149 c -1.11472,-0.33326 -1.87703,-0.63115 -2.26768,-0.9183 -0.85035,-0.60913 -1.27441,-1.48604 -1.27441,-2.62378 0,-1.73524 0.84488,-2.86783 2.51134,-3.37346 0.31012,-0.0922 0.65153,-0.16713 1.03075,-0.22489 l 0,-1.81797 z m 0,3.1111 c -1.14919,0.16093 -1.836,0.68524 -2.04279,1.59299 -0.0342,0.16093 -0.0564,0.32943 -0.0564,0.52476 0,1.08016 0.70858,1.80635 2.09904,2.17399 l 0,-4.29174 z m 1.04951,6.03472 0,4.70408 c 0.73545,-0.0804 1.28144,-0.29969 1.64926,-0.65592 0.49417,-0.48266 0.74965,-1.08659 0.74965,-1.79918 0,-0.73539 -0.27305,-1.27436 -0.82462,-1.63048 -0.35624,-0.2183 -0.88477,-0.4231 -1.57429,-0.6185 z"
       id="path3209"
       inkscape:connector-curvature="0" />
  </g>
</svg>
