<?xml version="1.0" encoding="UTF-8" standalone="no"?>
<!-- Created with Inkscape (http://www.inkscape.org/) -->

<svg
   xmlns:dc="http://purl.org/dc/elements/1.1/"
   xmlns:cc="http://creativecommons.org/ns#"
   xmlns:rdf="http://www.w3.org/1999/02/22-rdf-syntax-ns#"
   xmlns:svg="http://www.w3.org/2000/svg"
   xmlns="http://www.w3.org/2000/svg"
   xmlns:sodipodi="http://sodipodi.sourceforge.net/DTD/sodipodi-0.dtd"
   xmlns:inkscape="http://www.inkscape.org/namespaces/inkscape"
   width="30"
   height="30"
   id="svg3544"
   version="1.1"
   inkscape:version="0.48.3.1 r9886"
   sodipodi:docname="percent.svg">
  <defs
     id="defs3546" />
  <sodipodi:namedview
     id="base"
     pagecolor="#ffffff"
     bordercolor="#666666"
     borderopacity="1.0"
     inkscape:pageopacity="0.0"
     inkscape:pageshadow="2"
     inkscape:zoom="5.6"
     inkscape:cx="-12.80715"
     inkscape:cy="29.017467"
     inkscape:document-units="px"
     inkscape:current-layer="layer1"
     showgrid="true"
     fit-margin-top="0"
     fit-margin-left="0"
     fit-margin-right="0"
     fit-margin-bottom="0"
     inkscape:window-width="647"
     inkscape:window-height="502"
     inkscape:window-x="0"
     inkscape:window-y="51"
     inkscape:window-maximized="0">
    <inkscape:grid
       type="xygrid"
       id="grid3573"
       empspacing="5"
       visible="true"
       enabled="true"
       snapvisiblegridlinesonly="true" />
  </sodipodi:namedview>
  <metadata
     id="metadata3549">
    <rdf:RDF>
      <cc:Work
         rdf:about="">
        <dc:format>image/svg+xml</dc:format>
        <dc:type
           rdf:resource="http://purl.org/dc/dcmitype/StillImage" />
        <dc:title></dc:title>
      </cc:Work>
    </rdf:RDF>
  </metadata>
  <g
     inkscape:label="Ebene 1"
     inkscape:groupmode="layer"
     id="layer1"
     transform="translate(-393.57144,-448.79074)">
    <path
       inkscape:connector-curvature="0"
       id="path3103"
       style="font-size:25.99995422px;font-style:normal;font-variant:normal;font-weight:bold;font-stretch:normal;line-height:125%;letter-spacing:0px;word-spacing:0px;fill:#000000;fill-opacity:1;stroke:none;font-family:Open Sans;-inkscape-font-specification:Open Sans Bold"
       d="m 417.57314,468.46191 c 0,1.90077 -0.68732,3.43106 -2.06209,4.59056 -1.37491,1.14764 -3.29955,1.8351 -5.77408,2.06223 l 0,3.67598 -2.45673,0 0,-3.60423 c -2.91692,-0.0593 -5.47521,-0.57389 -7.67486,-1.54215 l 0,-4.73407 c 1.04015,0.51414 2.28935,0.9684 3.74788,1.3629 1.47039,0.39451 2.77934,0.62757 3.92698,0.69932 l 0,-5.55896 -1.20146,-0.46612 c -2.3669,-0.93252 -4.04662,-1.94259 -5.03875,-3.03048 -0.98026,-1.0999 -1.47039,-2.45673 -1.47039,-4.07063 0,-1.7334 0.67531,-3.15591 2.0262,-4.26768 1.36291,-1.12377 3.25761,-1.80515 5.6844,-2.04428 l 0,-2.74361 2.45673,0 0,2.67185 c 2.73753,0.12006 5.2122,0.66952 7.42372,1.64978 l -1.68551,4.19606 c -1.8649,-0.76514 -3.77769,-1.2314 -5.73821,-1.39878 l 0,5.29003 c 2.33116,0.8965 3.98687,1.67365 4.96713,2.33102 0.99213,0.65751 1.71546,1.38084 2.16972,2.16985 0.46626,0.78902 0.69932,1.70953 0.69932,2.76141 m -5.39752,0.26907 c 0,-0.50213 -0.20312,-0.92644 -0.60963,-1.27321 -0.40651,-0.34662 -1.01614,-0.70525 -1.82902,-1.07589 l 0,4.465 c 1.62576,-0.27487 2.43865,-0.98026 2.43865,-2.1159 m -7.2086,-10.88472 c 0,0.526 0.17938,0.96246 0.53801,1.30908 0.37064,0.33476 0.96232,0.68139 1.77521,1.04001 l 0,-4.21399 c -1.54215,0.22712 -2.31322,0.84876 -2.31322,1.8649" />
  </g>
</svg>
