<?xml version="1.0" encoding="UTF-8" standalone="no"?>
<!-- Created with Inkscape (http://www.inkscape.org/) -->

<svg
   xmlns:dc="http://purl.org/dc/elements/1.1/"
   xmlns:cc="http://creativecommons.org/ns#"
   xmlns:rdf="http://www.w3.org/1999/02/22-rdf-syntax-ns#"
   xmlns:svg="http://www.w3.org/2000/svg"
   xmlns="http://www.w3.org/2000/svg"
   xmlns:sodipodi="http://sodipodi.sourceforge.net/DTD/sodipodi-0.dtd"
   xmlns:inkscape="http://www.inkscape.org/namespaces/inkscape"
   width="30"
   height="30"
   id="svg3544"
   version="1.1"
   inkscape:version="0.48.3.1 r9886"
   sodipodi:docname="satisfaction.svg">
  <defs
     id="defs3546" />
  <sodipodi:namedview
     id="base"
     pagecolor="#ffffff"
     bordercolor="#666666"
     borderopacity="1.0"
     inkscape:pageopacity="0.0"
     inkscape:pageshadow="2"
     inkscape:zoom="5.6"
     inkscape:cx="-12.80715"
     inkscape:cy="29.017467"
     inkscape:document-units="px"
     inkscape:current-layer="layer1"
     showgrid="true"
     fit-margin-top="0"
     fit-margin-left="0"
     fit-margin-right="0"
     fit-margin-bottom="0"
     inkscape:window-width="647"
     inkscape:window-height="502"
     inkscape:window-x="0"
     inkscape:window-y="51"
     inkscape:window-maximized="0">
    <inkscape:grid
       type="xygrid"
       id="grid3573"
       empspacing="5"
       visible="true"
       enabled="true"
       snapvisiblegridlinesonly="true" />
  </sodipodi:namedview>
  <metadata
     id="metadata3549">
    <rdf:RDF>
      <cc:Work
         rdf:about="">
        <dc:format>image/svg+xml</dc:format>
        <dc:type
           rdf:resource="http://purl.org/dc/dcmitype/StillImage" />
        <dc:title></dc:title>
      </cc:Work>
    </rdf:RDF>
  </metadata>
  <g
     inkscape:label="Ebene 1"
     inkscape:groupmode="layer"
     id="layer1"
     transform="translate(-393.57144,-448.79074)">
    <path
       d="m 417.25571,465.79714 c -0.73339,0 -1.30151,0.3202 -1.70432,0.96062 -0.40286,0.63008 -0.60427,1.5339 -0.60426,2.71141 -1e-5,1.18786 0.19625,2.10201 0.58877,2.74241 0.40281,0.63009 0.97609,0.94512 1.71981,0.94512 0.74367,0 1.31178,-0.31503 1.70432,-0.94512 0.39248,-0.6404 0.58874,-1.55455 0.58876,-2.74241 -2e-5,-1.17751 -0.20143,-2.08133 -0.60426,-2.71141 -0.39253,-0.64042 -0.95547,-0.96062 -1.68882,-0.96062 m 0,-2.60296 c 1.92121,0 3.43444,0.55779 4.53969,1.67333 1.10519,1.11555 1.65782,2.64945 1.65784,4.60166 -2e-5,1.95223 -0.55265,3.49645 -1.65784,4.63266 -1.10525,1.12588 -2.61848,1.68882 -4.53969,1.68882 -1.92125,0 -3.43965,-0.56294 -4.55518,-1.68882 -1.10524,-1.13621 -1.65786,-2.68043 -1.65784,-4.63266 -2e-5,-1.94187 0.5526,-3.4706 1.65784,-4.58617 1.11553,-1.12587 2.63393,-1.68882 4.55518,-1.68882 m -14.20782,12.59647 -3.42414,0 14.45573,-23.99992 3.43963,0 -14.47122,23.99992 m -3.17623,-23.99992 c 1.92122,2e-5 3.42929,0.56296 4.52418,1.68882 1.10521,1.11557 1.65782,2.64946 1.65784,4.60166 -2e-5,1.95224 -0.55263,3.4913 -1.65784,4.61717 -1.09489,1.12589 -2.60296,1.68884 -4.52418,1.68882 -1.92124,2e-5 -3.43447,-0.56293 -4.53969,-1.68882 -1.09489,-1.12587 -1.64235,-2.66493 -1.64235,-4.61717 0,-1.9522 0.54746,-3.48609 1.64235,-4.60166 1.10522,-1.12586 2.61845,-1.6888 4.53969,-1.68882 m 0,2.60296 c -0.74372,1e-5 -1.31698,0.32022 -1.71982,0.96061 -0.40284,0.64043 -0.60426,1.5494 -0.60425,2.72691 -1e-5,1.18789 0.20141,2.10718 0.60425,2.75791 0.40284,0.64043 0.9761,0.96063 1.71982,0.96061 0.74369,2e-5 1.3118,-0.32018 1.70432,-0.96061 0.40283,-0.65073 0.60425,-1.57002 0.60426,-2.75791 -1e-5,-1.17751 -0.20143,-2.08648 -0.60426,-2.72691 -0.40285,-0.64039 -0.97096,-0.9606 -1.70432,-0.96061"
       id="path3126"
       inkscape:connector-curvature="0"
       style="font-size:40px;font-style:normal;font-weight:bold;line-height:125%;letter-spacing:0px;word-spacing:0px;fill:#000000;fill-opacity:1;stroke:none;font-family:Sans;-inkscape-font-specification:Sans Bold" />
  </g>
</svg>
