<?xml version="1.0" encoding="UTF-8" standalone="no"?>
<!-- Created with Inkscape (http://www.inkscape.org/) -->

<svg
   xmlns:dc="http://purl.org/dc/elements/1.1/"
   xmlns:cc="http://creativecommons.org/ns#"
   xmlns:rdf="http://www.w3.org/1999/02/22-rdf-syntax-ns#"
   xmlns:svg="http://www.w3.org/2000/svg"
   xmlns="http://www.w3.org/2000/svg"
   xmlns:sodipodi="http://sodipodi.sourceforge.net/DTD/sodipodi-0.dtd"
   xmlns:inkscape="http://www.inkscape.org/namespaces/inkscape"
   width="30"
   height="30"
   id="svg3544"
   version="1.1"
   inkscape:version="0.48.3.1 r9886"
   sodipodi:docname="investors.svg">
  <defs
     id="defs3546" />
  <sodipodi:namedview
     id="base"
     pagecolor="#ffffff"
     bordercolor="#666666"
     borderopacity="1.0"
     inkscape:pageopacity="0.0"
     inkscape:pageshadow="2"
     inkscape:zoom="5.6"
     inkscape:cx="-12.80715"
     inkscape:cy="29.017467"
     inkscape:document-units="px"
     inkscape:current-layer="layer1"
     showgrid="true"
     fit-margin-top="0"
     fit-margin-left="0"
     fit-margin-right="0"
     fit-margin-bottom="0"
     inkscape:window-width="647"
     inkscape:window-height="502"
     inkscape:window-x="0"
     inkscape:window-y="51"
     inkscape:window-maximized="0">
    <inkscape:grid
       type="xygrid"
       id="grid3573"
       empspacing="5"
       visible="true"
       enabled="true"
       snapvisiblegridlinesonly="true" />
  </sodipodi:namedview>
  <metadata
     id="metadata3549">
    <rdf:RDF>
      <cc:Work
         rdf:about="">
        <dc:format>image/svg+xml</dc:format>
        <dc:type
           rdf:resource="http://purl.org/dc/dcmitype/StillImage" />
        <dc:title></dc:title>
      </cc:Work>
    </rdf:RDF>
  </metadata>
  <g
     inkscape:label="Ebene 1"
     inkscape:groupmode="layer"
     id="layer1"
     transform="translate(-393.57144,-448.79074)">
    <path
       inkscape:connector-curvature="0"
       style="font-size:medium;font-style:normal;font-variant:normal;font-weight:normal;font-stretch:normal;text-indent:0;text-align:start;text-decoration:none;line-height:normal;letter-spacing:normal;word-spacing:normal;text-transform:none;direction:ltr;block-progression:tb;writing-mode:lr-tb;text-anchor:start;baseline-shift:baseline;color:#000000;fill:#000000;fill-opacity:1;stroke:none;stroke-width:2.63583994;marker:none;visibility:visible;display:inline;overflow:visible;enable-background:accumulate;font-family:Sans;-inkscape-font-specification:Sans"
       d="m 407.77558,448.79093 c -0.3167,0.0342 -0.5872,0.07 -0.8529,0.1 -0.034,0.01 -0.047,0 -0.063,0 l -0.4497,0 -0.083,0.49524 -0.6512,3.58586 c -0.9352,0.25014 -1.8261,0.61321 -2.6504,1.08229 l -2.9441,-2.11856 -0.3667,-0.26662 -0.3484,0.26662 c -0.905,0.70225 -1.7119,1.5215 -2.4304,2.40303 l -0.2835,0.34842 0.2468,0.34842 2.0179,2.96253 c -0.5382,0.89425 -0.9436,1.88514 -1.2196,2.91637 l -3.5126,0.55015 -0.4496,0.063 -0.063,0.44953 c -0.073,0.6072 -0.1,1.21597 -0.1,1.83458 0,0.5001 0,1.00819 0.063,1.51297 l 0.063,0.42181 0.4217,0.083 3.5309,0.63276 c 0.2735,1.12896 0.6976,2.19523 1.2844,3.16418 l -2.0728,2.86143 -0.2668,0.36714 0.2834,0.33912 c 0.6893,0.85655 1.4674,1.6284 2.3203,2.31115 l 0.3481,0.28344 0.3487,-0.24666 2.9992,-2.05416 c 0.9922,0.58306 2.0712,1.00889 3.2282,1.26551 l 0.5501,3.50338 0.063,0.44946 0.4495,0.0468 c 0.4701,0.0432 0.9382,0.0372 1.3846,0.0372 0.6439,0 1.2757,-0.0342 1.917,-0.1 l 0.4126,-0.063 0.073,-0.4218 0.6789,-3.5953 c 1.095,-0.31344 2.1282,-0.80327 3.0631,-1.41246 l 2.834,2.06365 0.3669,0.28344 0.3667,-0.30348 c 0.8496,-0.72283 1.6142,-1.55808 2.2837,-2.44861 l 0.2467,-0.33012 -0.22,-0.33943 -2.1096,-3.04485 c 0.4891,-0.91723 0.8438,-1.89152 1.0643,-2.93473 l 3.4939,-0.55945 0.4494,-0.0528 0.037,-0.46782 c 0.037,-0.42745 0.037,-0.82957 0.037,-1.24735 0,-0.76021 -0.1,-1.48502 -0.2,-2.18289 l -0.057,-0.43116 -0.4125,-0.063 -3.6139,-0.65119 c -0.2868,-0.91903 -0.6882,-1.77024 -1.183,-2.56771 l 2.1001,-2.87985 0.2668,-0.36702 -0.2833,-0.34854 c -0.7413,-0.90655 -1.5925,-1.75034 -2.5314,-2.46705 l -0.3202,-0.26662 -0.3483,0.24676 -3.0815,2.11856 c -0.7813,-0.42852 -1.6248,-0.76525 -2.513,-0.99961 l -0.5502,-3.54938 -0.063,-0.4494 -0.4495,-0.063 c -0.5775,-0.067 -1.1523,-0.1 -1.7518,-0.1 -0.1434,0 -0.3167,0 -0.4952,0 -0.034,0 -0.1066,0 -0.24,0 0.053,-0.01 0.034,0 -0.063,0 z m 0.4954,9.13483 c 0.1,-0.01 0.2001,0 0.3035,0 3.2425,0 5.8699,2.62699 5.8699,5.86955 0,3.24217 -2.6274,5.8696 -5.8699,5.8696 -3.2419,0 -5.8696,-2.62743 -5.8696,-5.8696 0,-3.14116 2.4653,-5.71259 5.5671,-5.86955 z"
       id="path3219" />
  </g>
</svg>
